<svg width="200.000000pt" height="153.000000pt" viewBox="0 0 200.000000 153.000000" xmlns="http://www.w3.org/2000/svg">
  <g transform="translate(0.000000,153.000000) scale(0.100000,-0.100000)" fill="#fefefe" stroke="none">
    <path d="M0 765 l0 -765 240 0 240 0 0 9 c0 4 -58 51 -128 102 l-129 94 -39
53 c-21 30 -69 78 -106 109 l-68 55 0 273 0 273 296 258 c163 143 302 263 310
267 8 4 14 15 14 22 l0 15 -315 0 -315 0 0 -765z" />
    <path d="M1270 1521 c0 -4 60 -34 133 -66 160 -70 559 -255 570 -265 4 -4
-123 -269 -283 -589 -159 -320 -290 -586 -290 -591 l0 -10 300 0 300 0 0 765
0 765 -365 0 -365 0 0 -9z" />
    <path d="M1550 1230 l0 -20 15 0 15 0 0 20 0 20 -15 0 -15 0 0 -20z" />
    <path d="M30 665 c0 -8 7 -15 15 -15 8 0 15 7 15 15 0 8 -7 15 -15 15 -8 0
-15 -7 -15 -15z" />
    <path d="M20 615 c0 -8 7 -15 15 -15 8 0 15 7 15 15 0 8 -7 15 -15 15 -8 0
-15 -7 -15 -15z" />
    <path d="M50 575 c0 -8 7 -15 15 -15 8 0 15 7 15 15 0 8 -7 15 -15 15 -8 0
-15 -7 -15 -15z" />
    <path d="M90 535 c0 -8 7 -15 15 -15 8 0 15 7 15 15 0 8 -7 15 -15 15 -8 0
-15 -7 -15 -15z" />
    <path d="M130 495 c0 -8 7 -15 15 -15 8 0 15 7 15 15 0 8 -7 15 -15 15 -8 0
-15 -7 -15 -15z" />
    <path d="M370 435 c0 -8 7 -15 15 -15 8 0 15 7 15 15 0 8 -7 15 -15 15 -8 0
-15 -7 -15 -15z" />
  </g>
  <g transform="translate(0.000000,153.000000) scale(0.100000,-0.100000)" fill="#636b95" stroke="none">
    <path d="M660 1519 c0 -6 7 -17 15 -25 16 -17 20 -34 7 -34 -5 0 -14 12 -21
26 l-12 26 -26 -7 -26 -6 -231 -202 c-127 -110 -261 -228 -299 -261 l-68 -61
3 -139 3 -140 25 -6 25 -6 0 -32 0 -32 28 -26 28 -26 26 6 25 7 24 -26 c13
-14 24 -30 24 -36 0 -15 -20 -10 -26 6 -4 8 -13 15 -21 15 l-15 0 5 -21 5 -20
-16 -6 -16 -7 -4 12 c-2 7 -11 12 -21 12 -22 0 -81 61 -81 83 0 9 -4 17 -10
17 l-10 0 0 -98 0 -99 80 -67 80 -67 0 15 c0 8 -14 26 -30 39 -17 14 -26 28
-21 31 5 4 11 1 13 -5 l4 -12 29 7 30 6 45 56 c25 31 62 72 82 92 21 19 38 44
38 54 0 10 8 22 17 25 25 10 55 43 51 56 -3 6 4 19 14 29 10 10 18 25 18 33 0
8 7 15 15 15 8 0 15 7 15 15 0 8 -7 15 -15 15 -8 0 -15 -7 -15 -15 0 -8 -6
-15 -13 -15 -7 0 -19 -9 -27 -20 -8 -11 -18 -20 -22 -20 -4 0 -8 9 -8 20 l0
20 16 0 16 0 -5 19 -4 19 52 51 c29 28 55 55 57 60 5 14 343 367 485 506 73
72 133 136 133 143 l0 12 -235 0 -235 0 0 -11z m-30 -319 c0 -5 -4 -10 -10
-10 -5 0 -10 -7 -10 -16 0 -8 -7 -22 -15 -30 l-15 -15 0 15 c0 20 -29 21 -36
1 -4 -8 -12 -15 -20 -15 -7 0 -16 -10 -19 -22 l-6 -23 -29 -1 -30 -1 0 23 0
24 13 0 c7 0 18 9 24 20 24 38 153 80 153 50z m-557 -722 c12 -7 26 -19 30
-25 4 -7 15 -13 24 -13 9 0 13 -3 10 -7 -4 -3 -17 -1 -30 5 -12 6 -31 12 -42
14 -11 2 -21 11 -23 21 -4 20 1 21 31 5z" />
    <path d="M1187 1523 c-13 -12 -7 -44 8 -49 8 -4 21 -1 29 5 24 20 60 14 136
-21 41 -20 129 -60 195 -88 66 -29 147 -65 180 -80 33 -14 75 -32 93 -40 l33
-13 -5 -13 c-3 -7 -16 -30 -30 -52 l-25 -40 -23 5 c-13 4 -32 12 -43 20 -11 7
-30 13 -42 13 l-23 0 -6 -25 c-3 -14 -10 -25 -15 -25 -5 0 -9 -7 -9 -15 0 -8
-7 -15 -15 -15 -15 0 -30 -40 -23 -61 2 -7 -13 -28 -35 -48 l-39 -36 7 -27 7
-27 20 -3 20 -3 -20 -25 -19 -25 -2 -52 -1 -53 15 0 15 0 0 19 c0 10 7 22 16
25 22 9 23 8 17 -14 l-5 -20 16 0 16 0 20 40 c24 47 25 60 5 60 -8 0 -15 -5
-15 -11 l0 -11 -15 12 c-18 15 -11 30 15 30 10 0 21 6 23 13 l5 12 1 -12 c1
-7 6 -13 12 -13 17 0 35 23 50 65 8 22 20 46 27 53 6 7 12 20 12 28 0 8 4 14
9 14 5 0 12 11 15 25 l6 25 20 0 20 0 0 25 c0 14 5 25 10 25 6 0 10 6 10 14
l0 14 41 -16 41 -16 -16 -12 c-9 -6 -16 -19 -16 -28 0 -9 -16 -48 -35 -86 -36
-71 -41 -90 -27 -90 11 0 144 278 140 291 -4 12 -218 114 -522 250 l-199 89
-37 0 c-20 0 -40 -3 -43 -7z m765 -351 l-5 -13 -14 5 c-8 3 -22 6 -31 6 l-17
0 12 8 c6 4 22 7 36 7 l24 0 -5 -13z m-302 -230 c0 -8 -1 -13 -3 -11 -1 2 -9
12 -16 22 l-14 17 17 -6 c9 -3 16 -13 16 -22z m37 -49 c-4 -3 -7 0 -7 7 0 7 3
10 7 7 3 -4 3 -10 0 -14z" />
    <path d="M1350 1375 c0 -8 -7 -15 -15 -15 l-15 0 0 -20 c0 -11 -4 -20 -10 -20
-5 0 -10 7 -10 15 l0 15 -30 0 c-16 0 -30 -4 -30 -10 0 -5 -7 -10 -15 -10 -8
0 -15 -6 -15 -14 0 -20 -20 -25 -54 -13 l-28 10 -8 -13 c-12 -19 -72 -90 -95
-111 -11 -10 -31 -29 -45 -41 -23 -21 -50 -67 -50 -87 0 -7 12 -14 164 -88
114 -55 116 -57 116 -70 0 -7 7 -13 15 -13 8 0 15 4 15 8 0 4 16 32 35 62 19
30 35 62 35 71 0 9 7 19 15 23 8 3 15 12 15 20 0 7 7 16 15 20 l15 5 0 25 c0
14 -6 31 -13 37 l-13 12 4 34 4 33 -14 0 -15 0 1 23 c1 28 14 37 46 31 l25 -6
23 20 c36 32 25 55 -17 33 l-17 -10 -15 10 -14 9 13 0 c6 0 12 9 12 20 l0 20
-15 0 c-8 0 -15 -7 -15 -15z m-70 -65 c0 -5 -4 -10 -10 -10 -14 0 -12 -27 3
-33 l12 -5 -17 -1 c-23 -1 -48 9 -48 20 0 17 24 38 43 39 9 0 17 -4 17 -10z" />
    <path d="M1510 1316 l0 -14 30 -7 30 -7 0 -14 c0 -8 -4 -14 -10 -14 -5 0 -10
-6 -10 -14 0 -8 -5 -16 -11 -18 l-11 -4 8 -28 7 -28 18 5 19 5 0 -14 c0 -23
27 -16 34 9 10 36 7 39 -24 35 l-30 -5 0 17 0 16 43 -3 c23 -1 52 -5 65 -9
l22 -6 0 16 c0 9 -8 19 -17 23 -10 3 -34 18 -53 33 -19 15 -52 30 -72 34 l-38
7 0 -15z" />
    <path d="M1640 1195 c0 -8 7 -15 15 -15 8 0 15 7 15 15 0 8 -7 15 -15 15 -8 0
-15 -7 -15 -15z" />
    <path d="M1480 1165 c0 -8 7 -15 15 -15 8 0 15 -4 15 -10 0 -5 9 -10 20 -10
l20 0 0 15 0 15 -20 0 c-11 0 -20 5 -20 10 0 6 -7 10 -15 10 -8 0 -15 -7 -15
-15z" />
    <path d="M1380 1125 c0 -8 7 -15 15 -15 8 0 15 7 15 15 0 8 -7 15 -15 15 -8 0
-15 -7 -15 -15z" />
    <path d="M1392 1027 c-12 -13 -22 -29 -22 -35 0 -15 36 -16 45 -2 9 15 25 12
25 -5 0 -8 -4 -15 -10 -15 -5 0 -10 -9 -10 -20 l0 -20 18 0 c22 0 42 19 42 40
0 10 -9 27 -20 40 -11 13 -20 27 -20 32 0 16 -27 8 -48 -15z" />
    <path d="M853 1004 c-7 -3 -13 -12 -13 -20 l0 -14 25 0 c14 0 25 -5 25 -11 0
-5 -5 -7 -10 -4 -14 9 -50 -4 -50 -18 0 -7 44 -34 97 -62 53 -27 131 -69 173
-92 41 -24 81 -43 88 -43 27 0 10 31 -28 50 -22 11 -40 25 -40 30 0 6 -7 10
-15 10 -8 0 -15 5 -15 10 0 6 -8 10 -18 10 -22 0 -72 22 -72 33 0 4 -9 7 -20
7 l-20 0 0 17 0 17 12 -12 c7 -7 18 -12 26 -12 7 0 20 -7 28 -15 9 -8 26 -15
38 -15 13 0 33 -9 46 -20 l23 -20 33 0 33 0 19 -25 20 -25 26 0 c14 0 26 -4
26 -10 0 -5 -7 -10 -15 -10 -8 0 -15 -8 -16 -17 l-1 -18 -5 13 c-2 6 -13 12
-24 12 l-19 0 0 -16 0 -15 30 -10 c17 -6 30 -17 30 -24 0 -11 28 -24 53 -25 4
0 7 18 7 40 l0 40 -15 0 c-27 0 -16 17 22 35 l37 18 4 -12 c5 -16 32 -14 32 3
0 8 -7 21 -15 30 l-15 15 18 30 17 31 23 0 23 0 -11 -19 c-5 -11 -10 -36 -10
-55 l0 -36 20 0 c26 0 37 27 21 52 l-11 18 19 -12 c11 -7 23 -9 26 -6 4 3 3
22 0 42 l-7 35 -46 7 -46 7 -4 -11 -4 -12 -15 15 c-17 18 -43 20 -43 4 0 -7 8
-18 18 -26 l17 -14 -20 5 c-11 2 -30 8 -42 12 l-23 6 0 -13 c0 -7 12 -23 28
-35 l27 -22 -27 5 c-16 3 -28 9 -28 14 0 12 -28 11 -32 -1 l-3 -9 -45 15 c-25
9 -47 19 -50 24 -8 12 -128 79 -180 100 -51 20 -119 32 -137 24z m74 -81 c-4
-3 -10 -3 -14 0 -3 4 0 7 7 7 7 0 10 -3 7 -7z" />
    <path d="M763 935 c-3 -9 -3 -18 0 -22 10 -10 37 6 37 22 0 20 -29 20 -37 0z" />
    <path d="M1816 874 c-15 -40 4 -48 22 -9 l12 25 -14 0 c-8 0 -17 -7 -20 -16z" />
    <path d="M693 865 c-3 -9 -3 -18 0 -22 10 -10 37 6 37 22 0 20 -29 20 -37 0z" />
    <path d="M550 845 c0 -8 7 -15 15 -15 8 0 15 7 15 15 0 8 -7 15 -15 15 -8 0
-15 -7 -15 -15z" />
    <path d="M660 815 c0 -8 7 -15 15 -15 8 0 15 7 15 15 0 8 -7 15 -15 15 -8 0
-15 -7 -15 -15z" />
    <path d="M1780 795 c0 -8 4 -15 9 -15 5 0 11 7 15 15 l5 15 -14 0 c-8 0 -15
-7 -15 -15z" />
    <path d="M880 780 c0 -5 -7 -10 -15 -10 -8 0 -15 -7 -15 -15 0 -18 7 -18 49
-4 17 6 31 17 31 25 l0 14 -25 0 c-14 0 -25 -4 -25 -10z" />
    <path d="M776 754 c-9 -8 -16 -22 -16 -30 l0 -14 20 0 c18 0 40 26 40 49 0 16
-26 13 -44 -5z" />
    <path d="M1760 755 c0 -8 4 -15 9 -15 5 0 11 7 15 15 l5 15 -14 0 c-8 0 -15
-7 -15 -15z" />
    <path d="M1434 737 c-6 -7 -14 -25 -18 -40 l-6 -27 -15 0 c-8 0 -15 -4 -15 -9
0 -5 -9 -7 -20 -4 l-20 5 0 -14 c0 -8 11 -21 25 -28 l25 -13 20 23 c11 13 20
18 20 12 0 -6 9 -14 21 -17 l20 -7 14 19 c19 24 19 43 0 43 l-15 0 0 35 0 35
-12 0 c-7 -1 -18 -6 -24 -13z" />
    <path d="M930 720 c0 -5 -7 -10 -15 -10 -8 0 -15 -7 -15 -15 0 -8 7 -15 15
-15 8 0 15 5 15 10 0 6 7 10 15 10 8 0 15 7 15 15 0 8 -7 15 -15 15 -8 0 -15
-4 -15 -10z" />
    <path d="M980 695 l0 -15 19 0 19 0 -5 -21 -6 -21 19 4 19 3 3 33 3 32 -35 0
-36 0 0 -15z" />
    <path d="M1526 688 c-9 -36 -7 -40 17 -36 l22 3 3 28 3 27 -19 0 -20 0 -6 -22z" />
    <path d="M543 693 c-15 -5 -18 -33 -4 -33 21 0 41 13 41 26 0 14 -14 17 -37 7z" />
    <path d="M943 655 c-3 -9 -3 -18 0 -22 10 -10 37 6 37 22 0 20 -29 20 -37 0z" />
    <path d="M690 635 c0 -8 7 -15 15 -15 8 0 15 7 15 15 0 8 -7 15 -15 15 -8 0
-15 -7 -15 -15z" />
    <path d="M1040 615 c0 -8 7 -15 15 -15 8 0 15 7 15 15 0 8 -7 15 -15 15 -8 0
-15 -7 -15 -15z" />
    <path d="M494 606 c-3 -8 -19 -18 -35 -21 l-29 -7 0 -14 c0 -8 -4 -14 -10 -14
-5 0 -10 -7 -10 -16 0 -18 -23 -44 -39 -44 -6 0 -11 -7 -11 -15 0 -8 -6 -15
-14 -15 l-14 0 -6 -35 c-4 -20 -3 -41 1 -48 4 -6 6 -19 5 -29 -4 -23 12 -30
53 -22 l36 6 -4 17 -3 16 53 68 52 68 7 34 c3 19 3 38 -1 44 -3 6 -1 11 4 11
6 0 11 7 11 15 l0 15 -20 0 c-11 0 -23 -6 -26 -14z" />
    <path d="M680 595 c0 -8 7 -15 15 -15 8 0 15 7 15 15 0 8 -7 15 -15 15 -8 0
-15 -7 -15 -15z" />
    <path d="M940 580 l0 -20 15 0 15 0 0 20 0 20 -15 0 -15 0 0 -20z" />
    <path d="M617 574 c-4 -4 -7 -27 -7 -51 l0 -43 21 0 21 0 -4 25 c-3 14 -1 25
4 25 5 0 8 10 6 22 -3 23 -27 35 -41 22z" />
    <path d="M1383 565 c-17 -19 -16 -35 2 -35 8 0 15 5 15 10 0 6 11 10 25 10
l25 0 0 15 0 15 -27 0 c-16 -1 -34 -7 -40 -15z" />
    <path d="M552 558 c-22 -22 -11 -78 15 -78 l15 0 -6 24 -6 25 10 6 c14 9 12
35 -3 35 -7 0 -18 -5 -25 -12z" />
    <path d="M1060 535 c0 -8 7 -15 15 -15 8 0 15 7 15 15 0 8 -7 15 -15 15 -8 0
-15 -7 -15 -15z" />
    <path d="M800 525 c0 -8 7 -15 15 -15 8 0 15 -4 15 -10 0 -5 7 -10 15 -10 8 0
15 -4 15 -10 0 -5 7 -10 15 -10 8 0 15 7 15 15 0 8 -7 15 -15 15 -8 0 -15 5
-15 10 0 6 -7 10 -15 10 -8 0 -15 5 -15 10 0 6 -7 10 -15 10 -8 0 -15 -7 -15
-15z" />
    <path d="M1360 495 c0 -8 7 -15 15 -15 8 0 15 7 15 15 0 8 -7 15 -15 15 -8 0
-15 -7 -15 -15z" />
    <path d="M762 474 c2 -11 11 -20 22 -22 l18 -4 -4 18 c-2 11 -11 20 -22 22
l-18 4 4 -18z" />
    <path d="M1320 475 c0 -8 7 -15 15 -15 8 0 15 7 15 15 0 8 -7 15 -15 15 -8 0
-15 -7 -15 -15z" />
    <path d="M833 443 c-15 -5 -18 -33 -4 -33 21 0 41 13 41 26 0 14 -14 17 -37 7z" />
    <path d="M1120 415 c0 -8 7 -15 15 -15 8 0 15 7 15 15 0 8 -7 15 -15 15 -8 0
-15 -7 -15 -15z" />
    <path d="M552 408 c-6 -6 -12 -17 -12 -22 0 -6 16 -28 36 -48 l35 -38 45 0
c24 0 44 4 44 9 0 17 -86 100 -110 106 l-25 6 -13 -13z" />
    <path d="M1306 412 c-9 -15 6 -82 18 -82 14 0 46 52 46 74 l0 16 -29 0 c-17 0
-32 -4 -35 -8z" />
    <path d="M1198 322 c-31 -18 -35 -37 -13 -65 l14 -19 18 6 c17 6 53 65 53 86
0 16 -43 11 -72 -8z" />
    <path d="M380 305 c0 -8 7 -15 15 -15 8 0 15 7 15 15 0 8 -7 15 -15 15 -8 0
-15 -7 -15 -15z" />
    <path d="M420 295 c0 -8 5 -15 10 -15 6 0 10 -7 10 -15 0 -8 7 -15 15 -15 8 0
15 7 15 15 0 8 -4 15 -10 15 -5 0 -10 7 -10 15 0 8 -7 15 -15 15 -8 0 -15 -7
-15 -15z" />
    <path d="M178 243 c11 -16 32 -39 46 -52 l26 -24 0 16 c0 9 -7 17 -15 17 l-15
0 0 18 c0 21 -30 52 -49 52 l-12 0 19 -27z" />
    <path d="M928 238 c-21 -12 -38 -28 -38 -35 l0 -13 30 0 31 0 24 25 c14 13 25
29 25 35 0 16 -32 11 -72 -12z" />
    <path d="M350 235 l0 -15 20 0 20 0 0 15 0 15 -20 0 -20 0 0 -15z" />
    <path d="M480 235 l0 -15 19 0 20 0 3 -22 3 -23 18 -3 19 -4 -7 34 c-4 18 -9
36 -12 41 -2 4 -17 7 -34 7 l-29 0 0 -15z" />
    <path d="M705 230 l-6 -20 21 -30 c12 -17 26 -30 31 -30 5 0 19 9 31 19 l21
20 -6 15 c-4 9 -18 18 -32 22 -14 3 -25 10 -25 15 0 18 -29 9 -35 -11z" />
    <path d="M1190 210 l0 -20 15 0 15 0 0 20 0 20 -15 0 -15 0 0 -20z" />
    <path d="M570 170 c0 -11 5 -20 11 -20 l10 0 -6 -20 -6 -20 15 -15 c19 -19 36
-19 36 0 0 8 -5 15 -11 15 l-11 0 6 16 c3 8 3 26 0 40 l-6 24 -19 0 -19 0 0
-20z" />
    <path d="M830 175 c0 -8 7 -15 15 -15 8 0 15 7 15 15 0 8 -7 15 -15 15 -8 0
-15 -7 -15 -15z" />
    <path d="M1461 166 c-7 -13 -11 -32 -9 -42 l4 -19 22 43 22 42 -13 0 c-8 0
-19 -11 -26 -24z" />
    <path d="M310 165 c0 -8 7 -15 15 -15 8 0 15 7 15 15 0 8 -7 15 -15 15 -8 0
-15 -7 -15 -15z" />
    <path d="M260 166 c0 -2 7 -9 15 -16 l15 -12 0 16 c0 9 -7 16 -15 16 -8 0 -15
-2 -15 -4z" />
    <path d="M630 145 c0 -8 7 -15 15 -15 8 0 15 7 15 15 0 8 -7 15 -15 15 -8 0
-15 -7 -15 -15z" />
    <path d="M300 136 c0 -2 7 -9 15 -16 l15 -12 0 16 c0 9 -7 16 -15 16 -8 0 -15
-2 -15 -4z" />
    <path d="M660 95 c0 -8 7 -15 15 -15 8 0 15 7 15 15 0 8 -7 15 -15 15 -8 0
-15 -7 -15 -15z" />
    <path d="M1360 95 c0 -8 7 -15 15 -15 8 0 15 7 15 15 0 8 -7 15 -15 15 -8 0
-15 -7 -15 -15z" />
    <path d="M1430 85 c0 -8 -4 -15 -8 -15 -8 0 -16 -14 -40 -62 -2 -5 3 -8 10 -8
8 0 24 20 36 45 12 25 22 48 22 50 0 3 -4 5 -10 5 -5 0 -10 -7 -10 -15z" />
    <path d="M370 86 c0 -2 7 -9 15 -16 l15 -12 0 16 c0 9 -7 16 -15 16 -8 0 -15
-2 -15 -4z" />
    <path d="M1030 73 c-30 -12 -42 -53 -15 -53 19 0 55 31 55 47 0 14 -14 15 -40
6z" />
    <path d="M708 63 c-10 -2 -18 -10 -18 -18 l0 -13 40 0 40 -1 0 14 c0 7 -7 16
-16 19 -17 6 -19 6 -46 -1z" />
    <path d="M410 56 c0 -2 7 -9 15 -16 l15 -12 0 16 c0 9 -7 16 -15 16 -8 0 -15
-2 -15 -4z" />
    <path d="M790 35 c0 -8 7 -15 15 -15 8 0 15 7 15 15 0 8 -7 15 -15 15 -8 0
-15 -7 -15 -15z" />
    <path d="M450 26 c0 -2 7 -9 15 -16 l15 -12 0 16 c0 9 -7 16 -15 16 -8 0 -15
-2 -15 -4z" />
    <path d="M1260 15 c0 -8 7 -15 15 -15 8 0 15 7 15 15 0 8 -7 15 -15 15 -8 0
-15 -7 -15 -15z" />
  </g>
  <g transform="translate(0.000000,153.000000) scale(0.100000,-0.100000)" fill="#3a53a2" stroke="none">
    <path d="M990 1391 c-166 -167 -496 -513 -493 -517 5 -7 -101 -103 -108 -98
-4 2 -11 -1 -15 -7 l-7 -12 10 6 11 7 5 -20 c3 -11 1 -20 -4 -20 -5 0 -9 5 -9
10 0 6 -14 -5 -31 -25 -34 -38 -55 -40 -23 -3 l18 23 -23 -21 -23 -22 10 -17
9 -18 8 12 7 12 18 -16 18 -16 7 10 c8 14 25 14 25 0 l0 -10 -12 7 -11 7 5
-21 6 -22 -18 10 -18 10 5 -20 5 -20 -21 -8 -21 -7 25 -29 25 -29 -17 -21
c-10 -11 -28 -31 -40 -45 -12 -14 -27 -37 -34 -53 l-11 -27 10 -31 11 -30 -20
0 c-10 0 -19 5 -19 10 0 16 -27 12 -34 -5 -3 -8 -12 -15 -21 -15 -8 0 -15 -7
-15 -16 0 -21 58 -94 74 -94 7 0 21 -9 31 -20 10 -12 25 -18 32 -15 l14 5 -6
-10 c-3 -5 17 -24 45 -42 27 -18 50 -36 50 -40 0 -4 20 -16 44 -27 24 -11 46
-27 50 -36 l5 -15 171 0 170 0 0 10 c0 13 -38 32 -50 25 l-10 -6 5 13 4 13
-70 48 -71 48 -13 -5 -14 -5 5 12 4 12 -48 33 c-27 18 -55 32 -63 30 -7 -2
-13 3 -14 9 0 7 -17 24 -38 38 l-37 26 -12 -7 -11 -7 6 10 7 11 -26 16 -25 17
-19 -6 -18 -6 -8 12 -7 12 13 -8 13 -8 -6 15 c-3 9 -1 20 5 26 l10 10 -11 6
-11 7 0 -12 0 -13 -12 12 -11 11 13 15 c7 9 16 14 20 11 4 -3 11 2 14 11 l6
15 -13 -7 -12 -8 12 16 c7 8 10 18 7 21 -4 4 3 5 14 2 l21 -4 -6 16 -6 16 17
-6 17 -7 -6 10 c-3 6 1 13 9 16 9 3 13 10 10 15 -3 5 -1 9 5 9 5 0 12 8 16 19
l5 18 23 -2 c33 -4 34 -4 8 -18 -13 -6 -23 -16 -22 -21 2 -5 -3 -13 -11 -17
l-13 -9 13 0 c22 0 53 20 47 30 -3 6 0 8 7 5 l13 -5 18 36 c9 19 17 42 17 50
0 9 25 40 55 69 30 30 55 60 55 68 0 8 9 17 20 20 l20 5 0 19 c0 11 10 29 23
40 12 11 32 34 44 49 12 16 34 34 50 40 l30 11 0 -13 0 -12 -14 5 c-7 3 -13 1
-13 -3 0 -10 99 -64 118 -64 6 0 12 -4 12 -10 0 -5 8 -10 18 -10 l17 0 -25 20
-25 20 18 0 c9 0 17 -4 17 -9 0 -5 9 -11 20 -14 l20 -5 -6 -16 -6 -16 17 0 c9
0 14 4 11 8 -2 4 4 8 15 8 10 0 19 -4 19 -8 0 -4 7 -8 15 -8 8 0 15 -4 15 -10
0 -5 18 -19 40 -30 22 -11 40 -23 40 -26 0 -2 -9 0 -20 6 -26 14 -25 6 2 -20
12 -11 30 -20 40 -20 l19 0 -6 10 c-3 6 -1 10 4 10 6 0 11 -6 11 -14 l0 -15
21 2 20 1 -4 17 -5 17 17 5 c10 2 18 12 18 21 0 14 -10 20 -29 17 -4 0 -5 6
-1 15 l6 16 -22 -7 -22 -7 -20 18 c-11 9 -33 17 -49 17 -16 0 -27 4 -24 9 3 4
-3 11 -13 14 -10 3 -26 10 -36 15 -10 5 -22 7 -27 4 -6 -3 -18 -1 -27 5 l-18
12 20 -6 20 -6 -24 20 c-13 11 -31 20 -40 20 l-16 0 15 -10 c8 -5 10 -10 4
-10 -6 0 -21 11 -34 25 l-23 25 -16 -13 -15 -12 9 14 8 14 -18 -7 -18 -6 12
14 12 14 -13 5 c-7 3 -3 4 10 4 l24 -1 10 -20 10 -19 9 14 8 13 -11 14 c-7 7
-29 22 -50 33 l-38 19 0 20 c0 11 14 33 30 50 32 33 39 60 15 60 -8 0 -15 -4
-15 -9 0 -5 -18 -27 -40 -50 l-40 -41 0 -25 0 -25 -15 0 -15 0 0 -20 c0 -11
-6 -20 -13 -20 -8 0 -24 -11 -37 -25 -13 -14 -29 -25 -37 -25 -7 0 -13 -6 -13
-12 0 -14 -49 -66 -114 -122 l-39 -33 6 -17 6 -16 -20 0 c-24 0 -49 -22 -49
-45 0 -8 -7 -18 -15 -21 -8 -4 -15 -15 -15 -25 l0 -19 -16 0 c-20 0 -44 -24
-44 -44 0 -9 -7 -16 -15 -16 l-15 0 0 25 0 25 21 0 21 0 -5 14 -5 14 15 -2 c8
0 20 7 27 16 l11 18 -13 21 -13 21 20 5 21 5 -7 11 -6 10 11 -7 c11 -7 45 8
70 32 l15 13 -12 25 c-12 28 -7 44 13 44 7 0 18 10 24 23 6 12 11 16 11 10 1
-7 8 -13 17 -13 l16 0 -4 25 -5 25 23 -6 24 -6 0 15 c0 9 -8 18 -17 20 l-18 5
18 1 c9 0 17 6 17 11 0 6 12 10 26 10 l26 0 -6 24 -6 23 24 -4 24 -5 7 21 c3
11 4 25 1 29 -3 5 5 22 17 38 34 44 93 104 104 104 5 0 16 12 25 28 9 15 40
51 68 79 l52 53 17 -20 c9 -11 30 -23 47 -26 l31 -6 7 26 6 26 15 0 c8 0 17
10 20 23 3 12 17 27 30 34 l25 11 0 -9 c0 -5 7 -9 15 -9 8 0 38 -11 67 -25
l52 -25 8 12 8 13 0 -16 0 -17 28 -7 c15 -4 42 -9 61 -11 18 -2 42 -10 51 -19
l18 -16 23 6 24 5 30 -28 c17 -15 24 -22 15 -17 l-15 10 14 -18 14 -17 18 5
c23 8 33 -9 14 -25 -8 -7 -12 -17 -8 -23 l6 -10 -10 6 -10 6 -18 -32 c-9 -18
-15 -43 -14 -57 l4 -25 20 0 20 0 -2 12 -3 12 17 -6 16 -6 -5 21 -6 22 11 -7
10 -6 -6 16 -6 17 15 0 15 0 -7 -12 -7 -11 16 6 c9 3 19 2 22 -3 4 -6 15 -10
26 -10 l20 0 -6 -10 c-3 -5 -1 -10 4 -10 l11 0 -5 -36 c-2 -20 -7 -40 -11 -43
-4 -3 -4 4 -1 17 10 40 -9 23 -39 -35 -35 -68 -86 -142 -97 -143 -4 0 -5 11
-1 25 l6 25 -12 0 c-6 0 -9 -4 -6 -9 4 -5 0 -11 -6 -13 -7 -3 -13 -13 -13 -24
l0 -19 -15 0 c-8 0 -21 -4 -28 -9 l-13 -8 12 -14 c6 -8 21 -14 33 -14 l21 0
-13 9 -14 8 21 6 c24 6 27 -3 9 -21 -7 -7 -14 -17 -14 -22 -1 -6 -2 -16 -3
-22 l-1 -13 -9 14 -9 14 -16 -6 -16 -6 7 -17 6 -17 -11 7 -12 7 0 -20 0 -21
15 0 14 0 -6 -17 c-3 -10 -12 -25 -19 -33 -7 -8 -33 -55 -59 -105 -25 -49 -51
-99 -58 -110 -6 -11 -29 -48 -49 -82 -21 -34 -38 -65 -38 -67 0 -3 -20 -40
-45 -82 -25 -41 -45 -79 -45 -82 0 -4 -16 -33 -35 -65 -19 -32 -35 -60 -35
-63 0 -3 52 -4 115 -3 l115 1 -6 9 c-3 5 0 9 6 9 6 0 8 5 5 10 -3 6 -1 10 5
10 6 0 9 4 6 9 -4 5 -3 11 1 13 5 1 18 22 30 46 l22 43 -12 -6 c-7 -4 -3 1 7
9 11 9 16 16 10 16 -5 0 -4 4 2 8 13 8 297 572 288 572 -3 0 2 7 10 16 9 8 14
20 11 25 -4 5 -2 9 4 9 10 0 27 38 23 53 -1 4 3 7 10 7 6 0 9 3 5 6 -3 4 1 13
9 21 8 8 12 19 9 24 -4 5 -1 9 5 9 6 0 8 5 5 10 -3 6 -1 10 5 10 6 0 8 5 5 10
-3 6 -1 10 5 10 6 0 8 5 5 10 -3 6 -1 10 5 10 6 0 8 5 5 10 -3 6 -1 10 5 10 6
0 8 4 5 10 -3 5 -1 10 5 10 6 0 8 5 5 10 -3 6 -1 10 5 10 6 0 8 5 5 10 -3 6
-1 10 6 10 l11 0 -12 15 -13 15 18 -6 18 -7 -7 11 -7 12 12 0 c7 0 9 3 6 7 -4
3 0 17 8 30 l15 23 -10 0 c-6 0 -8 5 -5 10 4 6 12 7 18 3 l12 -7 -12 16 c-7 8
-10 18 -6 22 4 4 -1 4 -11 0 l-19 -7 7 11 7 12 -14 -6 c-8 -3 -21 2 -29 10
l-15 15 -12 -12 c-17 -17 -13 -26 12 -20 l22 4 -18 -11 c-10 -6 -25 -9 -34 -6
l-16 6 17 18 c18 20 22 37 6 27 -5 -3 -10 -1 -10 5 0 6 -4 8 -10 5 -5 -3 -10
-1 -10 5 0 6 -4 8 -10 5 -5 -3 -10 -2 -10 4 l0 10 -17 -6 -16 -6 6 10 c8 13
-18 24 -38 17 l-15 -6 -6 16 c-3 9 -10 14 -14 11 -12 -8 -41 6 -34 16 5 8 -10
13 -30 10 -17 -3 -46 11 -41 20 l6 9 -17 -7 -17 -6 7 11 7 12 -17 -7 -17 -6 8
13 8 13 -12 -7 c-15 -9 -53 3 -46 15 l6 9 -17 -7 -17 -6 7 11 7 12 -17 -7 -17
-6 7 11 7 12 -14 -6 c-7 -2 -26 0 -41 6 l-27 10 6 10 6 10 -17 -7 -17 -6 8 13
8 13 -12 -7 c-15 -9 -53 3 -46 15 l6 9 -17 -7 -17 -6 8 13 8 13 -11 -6 c-5 -4
-17 -4 -26 -1 l-16 6 7 11 6 10 -16 -6 c-10 -4 -24 -10 -32 -13 l-15 -6 0 16
0 16 -22 -1 c-13 0 -17 -3 -10 -6 14 -6 16 -29 2 -38 l-10 -6 -10 25 -10 26
-27 -2 -28 -1 -135 -136z m200 92 c0 -4 -5 -22 -12 -40 -7 -18 -18 -33 -26
-33 -8 0 -16 -9 -19 -20 -3 -11 -12 -20 -19 -20 -8 0 -14 -7 -14 -15 0 -19
-14 -19 -31 1 l-13 16 11 6 c6 4 12 16 14 27 2 11 14 24 27 30 12 5 22 15 22
20 0 17 22 35 42 35 10 0 18 -3 18 -7z m686 -307 c3 -8 11 -13 18 -10 7 3 19
-2 26 -10 7 -9 17 -13 23 -9 l10 6 -7 -11 -7 -11 -27 10 c-14 6 -32 15 -39 20
-16 14 -36 1 -29 -18 l6 -14 -10 6 c-6 3 -10 1 -10 -4 0 -6 -4 -11 -10 -11 -5
0 0 16 11 35 22 37 36 44 45 21z m-46 -86 c0 -5 -8 -8 -18 -7 l-18 1 0 17 0
17 18 -9 c10 -5 18 -14 18 -19z m-73 -87 c-4 -3 -7 0 -7 7 0 7 3 10 7 7 3 -4
3 -10 0 -14z m-867 -13 c0 -5 -2 -10 -4 -10 -3 0 -8 5 -11 10 -3 6 -1 10 4 10
6 0 11 -4 11 -10z m831 -57 c-12 -20 -14 -14 -5 12 4 9 9 14 11 11 3 -2 0 -13
-6 -23z m-931 3 c0 -3 -5 -8 -12 -12 l-11 -7 7 11 c7 12 16 16 16 8z m103 -11
c-3 -9 -8 -14 -10 -11 -3 3 -2 9 2 15 9 16 15 13 8 -4z m32 -25 l6 -10 -15 6
c-18 7 -21 14 -7 14 6 0 13 -4 16 -10z m782 -7 c-4 -3 -7 0 -7 7 0 7 3 10 7 7
3 -4 3 -10 0 -14z m-987 -27 c0 -3 -5 -8 -12 -12 l-11 -7 7 11 c7 12 16 16 16
8z m860 -20 c0 -3 -5 -8 -12 -12 l-11 -7 7 11 c7 12 16 16 16 8z m55 -66 c-9
-16 -18 -30 -21 -30 -2 0 2 14 11 30 9 17 18 30 21 30 2 0 -2 -13 -11 -30z
m-1268 -97 c-4 -3 -10 -3 -14 0 -3 4 0 7 7 7 7 0 10 -3 7 -7z m63 3 c0 -3 -4
-8 -10 -11 -5 -3 -10 -1 -10 4 0 6 5 11 10 11 6 0 10 -2 10 -4z m100 -80 c0
-2 -7 -7 -16 -10 l-15 -6 6 10 c6 10 25 14 25 6z m-153 -373 c-4 -3 -10 -3
-14 0 -3 4 0 7 7 7 7 0 10 -3 7 -7z m168 -43 c3 -5 4 -10 1 -10 -3 0 -8 5 -11
10 -3 6 -4 10 -1 10 3 0 8 -4 11 -10z m55 -14 c0 -3 -4 -8 -10 -11 -5 -3 -10
-1 -10 4 0 6 5 11 10 11 6 0 10 -2 10 -4z m155 -134 c-3 -3 -11 0 -18 7 l-12
12 18 -7 c10 -3 15 -9 12 -12z" />
    <path d="M670 1471 c0 -20 26 -36 35 -21 8 13 -6 40 -21 40 l-14 0 0 -19z" />
    <path d="M1046 1294 c-9 -24 -7 -34 8 -34 13 0 26 20 26 41 0 15 -27 10 -34
-7z" />
    <path d="M1044 1223 c-77 -79 -95 -106 -69 -104 6 1 10 7 10 14 0 6 9 11 18
11 10 -1 16 0 13 3 -3 3 16 26 42 51 26 25 40 42 32 38 -8 -5 -3 3 13 18 15
15 27 31 27 36 0 5 7 7 15 4 l15 -6 0 11 c0 29 -40 3 -116 -76z" />
    <path d="M1204 1258 l-7 -11 11 7 c12 7 16 16 8 16 -3 0 -8 -5 -12 -12z" />
    <path d="M1230 1249 c0 -5 5 -7 10 -4 6 3 10 8 10 11 0 2 -4 4 -10 4 -5 0 -10
-5 -10 -11z" />
    <path d="M560 1222 c0 -5 -16 -15 -36 -22 -20 -8 -44 -25 -54 -37 -10 -13 -23
-23 -29 -23 -11 0 -15 -13 -12 -37 l2 -13 -18 6 -18 6 13 -9 13 -10 -7 -16 -6
-17 12 0 11 0 -7 11 -7 12 14 -5 c8 -3 22 -1 33 4 l18 10 -6 -10 -6 -10 20 5
c11 3 20 12 20 19 0 8 5 14 11 14 5 0 7 -4 4 -10 -11 -18 14 -11 35 10 11 11
24 20 28 20 10 0 36 36 33 45 -2 4 3 11 10 15 l12 8 -14 14 c-17 17 -69 32
-69 20z m10 -82 c0 -5 -5 -10 -11 -10 -5 0 -7 5 -4 10 3 6 8 10 11 10 2 0 4
-4 4 -10z m-33 -27 c-4 -3 -10 -3 -14 0 -3 4 0 7 7 7 7 0 10 -3 7 -7z" />
    <path d="M1294 1218 l-7 -11 11 7 c12 7 16 16 8 16 -3 0 -8 -5 -12 -12z" />
    <path d="M900 1205 c0 -8 7 -15 15 -15 8 0 15 7 15 15 0 8 -7 15 -15 15 -8 0
-15 -7 -15 -15z" />
    <path d="M1334 1188 l-7 -22 12 -4 12 -4 -13 -16 -13 -16 16 6 16 6 0 -15 c0
-9 -8 -18 -18 -20 l-18 -5 6 -14 5 -14 -16 -6 c-9 -3 -16 -15 -16 -26 l0 -19
-10 6 -10 6 6 -14 c2 -7 -5 -25 -16 -38 l-21 -24 6 22 c3 12 2 24 -2 26 -5 3
-9 -11 -9 -31 -1 -21 -4 -45 -9 -54 l-7 -18 8 0 c5 0 34 38 63 85 30 47 60 85
67 85 7 0 16 5 20 12 10 16 14 58 5 58 -4 0 -13 16 -21 35 -8 19 -17 35 -21
35 -4 0 -11 -10 -15 -22z" />
    <path d="M1160 1126 c0 -2 7 -7 16 -10 l15 -6 -6 10 c-6 10 -25 14 -25 6z" />
    <path d="M927 1102 c-10 -10 -17 -25 -17 -33 0 -8 15 -22 33 -30 17 -9 82 -41
142 -72 l110 -55 3 -17 4 -16 -26 7 c-14 3 -26 4 -26 1 0 -9 31 -37 41 -37 5
0 9 7 9 15 0 8 7 15 16 15 l15 0 -7 23 c-3 12 -7 22 -8 22 0 0 -10 6 -21 12
-11 7 -45 25 -75 39 -30 15 -58 31 -61 37 -3 5 -10 8 -15 8 -15 -1 -46 11 -76
29 l-29 17 16 17 c9 9 13 20 10 26 -9 15 -20 12 -38 -8z" />
    <path d="M1065 1110 c3 -5 8 -10 11 -10 3 0 2 5 -1 10 -3 6 -8 10 -11 10 -3 0
-2 -4 1 -10z" />
    <path d="M1120 1099 c0 -5 5 -7 10 -4 6 3 10 8 10 11 0 2 -4 4 -10 4 -5 0 -10
-5 -10 -11z" />
    <path d="M790 1085 c0 -8 7 -15 15 -15 8 0 15 7 15 15 0 8 -7 15 -15 15 -8 0
-15 -7 -15 -15z" />
    <path d="M990 1090 c0 -5 4 -10 9 -10 6 0 13 5 16 10 l6 10 -15 0 c-9 0 -16
-4 -16 -10z" />
    <path d="M1720 1080 c0 -7 3 -10 7 -7 3 4 3 10 0 14 -4 3 -7 0 -7 -7z" />
    <path d="M1263 1043 c4 -3 10 -3 14 0 3 4 0 7 -7 7 -7 0 -10 -3 -7 -7z" />
    <path d="M1653 1020 c3 -14 2 -32 -3 -40 -5 -8 -10 -11 -10 -6 0 5 -7 3 -15
-4 l-15 -13 11 -13 c15 -19 39 -18 39 2 l0 15 10 -6 c6 -4 7 -11 4 -17 l-7
-11 12 7 12 8 -11 13 -11 13 6 24 6 24 -17 15 -17 14 6 -25z" />
    <path d="M1126 1007 c3 -10 9 -15 12 -12 3 3 0 11 -7 18 l-12 12 7 -18z" />
    <path d="M930 970 c0 -7 3 -10 7 -7 3 4 3 10 0 14 -4 3 -7 0 -7 -7z" />
    <path d="M982 958 l-11 -14 22 1 c25 1 35 18 14 23 -8 2 -19 -3 -25 -10z" />
    <path d="M1196 962 c-2 -4 4 -9 15 -9 l19 -2 -5 10 c-7 11 -22 12 -29 1z" />
    <path d="M1034 938 l-7 -11 11 7 c12 7 16 16 8 16 -3 0 -8 -5 -12 -12z" />
    <path d="M1072 926 c10 -7 15 -16 11 -19 -3 -4 -1 -7 5 -7 6 0 14 5 18 11 7
13 -13 29 -36 29 l-15 -1 17 -13z" />
    <path d="M1220 841 c0 -14 18 -23 31 -15 l11 7 -13 8 c-18 11 -29 11 -29 0z" />
    <path d="M1050 811 c0 -11 59 -36 66 -28 3 3 -8 13 -25 21 -35 18 -41 19 -41
7z" />
    <path d="M1293 803 c4 -3 10 -3 14 0 3 4 0 7 -7 7 -7 0 -10 -3 -7 -7z" />
    <path d="M1472 798 c-19 -19 -14 -30 10 -26 l23 3 3 18 3 17 -13 0 c-8 0 -19
-5 -26 -12z" />
    <path d="M330 660 c0 -5 5 -10 11 -10 5 0 7 5 4 10 -3 6 -8 10 -11 10 -2 0 -4
-4 -4 -10z" />
    <path d="M298 647 l11 -13 -17 -24 -17 -25 -25 0 c-14 0 -28 5 -32 10 l-8 10
0 -17 c0 -9 5 -20 10 -23 6 -3 10 -2 10 3 0 5 11 8 25 6 l26 -2 11 18 c6 10
16 17 22 16 6 -2 8 -1 4 1 -5 3 -8 9 -8 14 l0 10 13 -7 c6 -4 3 2 -7 14 -20
23 -36 31 -18 9z" />
    <path d="M200 640 c0 -7 3 -10 7 -7 3 4 3 10 0 14 -4 3 -7 0 -7 -7z" />
    <path d="M226 625 c-3 -8 -1 -15 4 -15 13 0 22 18 11 24 -5 3 -11 -1 -15 -9z" />
    <path d="M145 610 c-3 -5 -3 -10 2 -10 12 0 -20 -20 -32 -20 -5 0 -4 4 4 9
l13 9 -10 6 c-14 9 -23 -8 -16 -29 l7 -17 26 5 27 6 12 -20 c7 -10 19 -19 27
-19 20 0 19 6 -6 31 l-20 20 12 15 11 14 -11 0 c-6 0 -11 -5 -11 -11 0 -6 -6
-9 -12 -6 -7 2 -12 10 -10 16 3 14 -5 14 -13 1z" />
    <path d="M253 603 c4 -3 10 -3 14 0 3 4 0 7 -7 7 -7 0 -10 -3 -7 -7z" />
    <path d="M4 558 l-7 -11 11 7 c12 7 16 16 8 16 -3 0 -8 -5 -12 -12z" />
    <path d="M287 505 c-15 -14 -27 -28 -27 -30 0 -3 7 -5 15 -5 8 0 15 7 15 15 0
8 7 15 15 15 8 0 15 7 15 15 0 8 -1 15 -3 15 -1 0 -15 -11 -30 -25z" />
    <path d="M1363 523 c-7 -2 -13 -11 -13 -19 l0 -14 23 4 c12 1 23 10 25 19 l3
17 -13 -1 c-7 0 -19 -3 -25 -6z" />
    <path d="M0 511 c0 -3 4 -12 9 -19 l8 -14 5 19 5 20 -13 0 c-8 0 -14 -3 -14
-6z" />
    <path d="M48 509 c-10 -5 -18 -18 -18 -27 0 -10 -6 -24 -12 -31 l-13 -14 18 6
17 6 0 -10 0 -10 21 6 20 7 19 -17 c11 -10 17 -23 14 -29 -4 -6 4 1 17 15 13
14 30 24 37 22 6 -3 13 0 13 6 4 34 21 63 34 58 6 -3 12 1 12 9 0 18 -22 18
-40 -1 -8 -8 -18 -11 -21 -7 -4 3 -5 0 -1 -8 l5 -15 -21 -13 -21 -13 -13 11
-13 11 -26 -7 -26 -6 0 9 c0 5 3 13 7 17 6 6 14 37 10 36 -1 0 -10 -5 -19 -11z" />
    <path d="M443 493 c4 -3 10 -3 14 0 3 4 0 7 -7 7 -7 0 -10 -3 -7 -7z" />
    <path d="M456 472 c-3 -5 1 -9 9 -9 8 0 12 4 9 9 -3 4 -7 8 -9 8 -2 0 -6 -4
-9 -8z" />
    <path d="M70 404 c15 -18 27 -18 27 -1 0 7 -9 14 -19 14 l-20 2 12 -15z" />
    <path d="M1355 410 c4 -6 0 -22 -9 -35 -19 -28 -20 -35 -6 -35 10 0 40 52 40
70 0 5 -7 10 -16 10 l-15 0 6 -10z" />
    <path d="M102 348 c6 -16 36 -34 44 -26 12 13 -5 38 -27 38 l-21 0 4 -12z" />
    <path d="M975 280 c-21 -17 -42 -35 -45 -40 -3 -5 -24 -13 -46 -18 -23 -5 -51
-19 -63 -31 l-23 -23 6 -14 5 -14 26 0 c32 0 87 23 146 61 l47 30 12 29 c12
30 7 50 -13 50 -7 0 -30 -14 -52 -30z m-7 -53 c-12 -12 -33 -23 -47 -24 l-25
-1 39 24 c22 13 44 24 48 24 4 0 -2 -10 -15 -23z" />
  </g>
  <g transform="translate(0.000000,153.000000) scale(0.100000,-0.100000)" fill="#0f0f1f" stroke="none">
    <path d="M1191 1369 c-52 -51 -59 -71 -28 -77 l17 -3 25 29 24 29 30 -5 30 -4
-6 -14 -5 -15 36 3 c20 1 36 6 36 10 0 5 11 6 25 2 l25 -6 6 16 c8 22 1 29
-31 29 -14 0 -25 3 -25 8 0 8 -84 49 -100 49 -4 0 -31 -23 -59 -51z m159 -29
c0 -5 -4 -10 -10 -10 -5 0 -10 5 -10 10 0 6 5 10 10 10 6 0 10 -4 10 -10z" />
    <path d="M1447 1343 c-4 -3 -7 -12 -7 -20 l0 -13 40 0 40 0 0 10 c0 6 -12 15
-26 20 -30 12 -38 12 -47 3z" />
    <path d="M1313 1265 l0 -15 19 0 18 0 0 15 0 15 -18 0 -19 0 0 -15z" />
    <path d="M1440 1265 c0 -7 6 -18 13 -22 8 -4 22 -20 32 -35 9 -16 24 -28 31
-28 8 0 14 -4 14 -10 0 -16 -30 -12 -48 7 -9 9 -22 26 -27 37 -6 12 -18 22
-28 24 l-17 3 0 -21 c0 -23 16 -57 37 -78 7 -7 13 -24 13 -37 0 -13 4 -26 9
-30 15 -8 40 -63 47 -101 3 -19 11 -34 18 -34 6 0 28 16 49 35 l37 35 -11 46
-12 45 12 12 c6 6 11 21 11 33 l0 23 -20 -2 -20 -1 0 -18 0 -18 -15 0 c-8 0
-15 -7 -15 -15 0 -8 -5 -15 -11 -15 l-11 0 6 17 7 16 -13 9 -13 8 23 0 22 0 0
15 c0 8 -4 15 -10 15 -5 0 -10 9 -10 20 0 10 -9 24 -19 30 l-19 10 5 20 5 20
-36 0 -36 0 0 -15z m110 -219 c0 -3 -4 -8 -10 -11 -5 -3 -10 -1 -10 4 0 6 5
11 10 11 6 0 10 -2 10 -4z" />
    <path d="M1042 1254 c-12 -8 -22 -22 -22 -30 0 -8 -8 -17 -17 -21 -20 -7 -93
-78 -93 -90 0 -5 -9 -14 -20 -21 l-20 -12 0 -23 c0 -19 19 -63 20 -45 0 6 75
-31 265 -130 17 -8 32 -19 35 -22 3 -4 22 -13 43 -21 l38 -13 8 13 8 13 6 -16
6 -16 15 6 c8 3 17 0 21 -5 3 -6 11 -9 16 -6 17 11 9 35 -16 47 -32 14 -32 27
-1 21 l24 -5 4 23 3 23 17 -17 c18 -18 38 -23 38 -8 0 5 7 8 16 7 28 -2 26 18
-3 36 l-28 17 22 1 c30 0 39 18 19 38 l-16 17 -21 -13 c-34 -21 -32 -7 2 22
l32 27 -16 35 c-9 19 -20 34 -24 34 -5 0 -18 -12 -30 -27 -77 -97 -112 -142
-133 -172 l-23 -34 -8 22 -8 21 -20 0 c-11 0 -22 4 -25 9 -3 4 -27 16 -53 26
-26 10 -52 22 -58 28 -5 5 -35 19 -65 30 l-55 22 -3 15 -2 15 85 87 c47 48 85
92 85 98 0 15 -22 12 -48 -6z" />
    <path d="M1560 1259 l0 -11 15 6 15 6 -10 -20 c-5 -10 -10 -24 -10 -30 l0 -11
23 3 22 3 2 30 1 30 -29 2 -29 2 0 -10z" />
    <path d="M1472 914 c4 -21 22 -23 26 -1 l3 17 -16 0 -16 0 3 -16z" />
    <path d="M803 913 c-7 -2 -13 -12 -13 -22 0 -9 -13 -30 -30 -46 -16 -16 -30
-35 -30 -42 0 -7 -7 -13 -15 -13 -8 0 -15 -6 -15 -13 0 -15 -41 -57 -55 -57
-14 0 -66 -63 -81 -100 -8 -19 -18 -37 -22 -40 -5 -3 -16 -23 -27 -45 -10 -22
-45 -75 -78 -118 l-60 -78 9 -9 c5 -5 36 -27 68 -49 l59 -40 25 20 c14 10 29
19 34 19 5 0 16 7 24 15 l15 15 -10 17 c-5 10 -19 27 -30 37 l-21 19 11 14 c6
7 17 13 24 13 7 0 30 -20 51 -45 21 -25 48 -48 61 -51 13 -4 44 -1 69 6 l45
13 -3 16 c-2 9 -22 25 -45 37 l-41 21 7 11 7 12 52 -35 c28 -19 57 -35 64 -35
7 0 36 9 63 19 l50 19 3 15 3 16 -38 23 c-21 13 -50 30 -65 37 -16 8 -28 18
-28 23 0 4 -5 8 -10 8 -6 0 -36 16 -66 35 -30 19 -59 35 -64 35 -13 0 -13 17
0 25 6 4 7 11 4 17 l-7 11 10 -6 c5 -3 20 7 32 24 l22 29 19 -10 c11 -6 30 -8
43 -5 l23 6 29 -15 c17 -9 34 -16 38 -16 5 0 16 -9 25 -20 10 -11 32 -23 50
-26 l32 -6 0 14 c0 8 -11 20 -24 27 l-24 13 -14 -8 -13 -8 12 15 12 15 -19 12
c-11 7 -23 13 -27 14 -5 0 -13 8 -19 17 l-12 15 -60 1 -59 0 4 12 c3 7 9 10
14 7 5 -3 9 -2 9 3 0 15 69 6 97 -12 15 -10 33 -18 40 -18 7 0 10 -4 7 -8 -5
-9 27 -29 46 -29 6 0 9 4 5 9 -3 5 -1 12 5 16 5 3 10 1 10 -5 l0 -12 16 6 17
6 -6 -27 c-5 -31 3 -63 18 -66 5 -1 8 -14 6 -29 -1 -14 2 -29 8 -32 6 -4 8
-13 4 -21 l-5 -15 15 0 14 0 13 44 c7 25 21 53 32 63 l20 18 19 -24 19 -23 0
-64 0 -64 21 0 21 0 -7 52 -7 53 16 -14 c15 -13 24 -12 71 3 11 4 3 -2 -17
-14 l-38 -20 0 -25 0 -24 21 -6 21 -7 14 20 c21 30 79 89 93 93 6 2 14 21 18
42 l6 39 -19 -4 -18 -3 3 45 2 46 -36 13 c-20 7 -39 10 -42 7 -3 -3 -6 -24 -6
-46 l0 -40 -12 10 c-6 5 -15 7 -18 3 -4 -3 -7 -1 -7 5 l0 12 -45 0 -45 0 -17
20 c-10 11 -25 20 -35 20 -10 0 -18 4 -18 9 0 5 -13 12 -30 16 -16 4 -30 12
-30 19 0 6 -25 20 -56 31 -30 10 -59 26 -65 36 -5 10 -22 20 -39 24 -16 4 -30
12 -30 20 0 7 -10 15 -22 19 -26 6 -28 6 -45 -1z m117 -137 c0 -2 -7 -6 -15
-10 -8 -3 -15 -1 -15 4 0 6 7 10 15 10 8 0 15 -2 15 -4z m450 -121 c0 -2 -4
-6 -9 -9 -5 -3 -11 1 -14 9 l-6 14 15 -6 c7 -3 14 -7 14 -8z m15 -25 c3 -5 4
-10 1 -10 -3 0 -8 5 -11 10 -3 6 -4 10 -1 10 3 0 8 -4 11 -10z m-742 -105 l-5
-30 -39 -1 c-21 -1 -36 2 -34 6 3 5 -1 10 -7 13 l-13 4 11 19 11 19 34 6 c19
3 37 3 40 0 4 -3 5 -20 2 -36z m133 -45 c35 -22 66 -40 69 -40 3 0 15 -9 27
-20 l22 -20 -25 0 c-27 0 -179 93 -179 110 0 18 22 11 86 -30z" />
    <path d="M1463 831 c0 -11 5 -17 9 -15 4 3 8 0 8 -5 0 -6 7 -11 15 -11 22 0
19 27 -4 40 -27 14 -30 13 -28 -9z" />
    <path d="M1620 834 c0 -17 22 -14 28 4 2 7 -3 12 -12 12 -9 0 -16 -7 -16 -16z" />
    <path d="M1471 779 l-23 -9 6 -23 c3 -12 6 -38 6 -58 l0 -36 15 0 c8 0 12 4 9
9 -3 4 -1 8 3 8 9 0 33 78 33 105 0 17 -14 18 -49 4z" />
    <path d="M1574 763 c2 -10 9 -18 17 -18 20 0 17 29 -3 33 l-16 3 2 -18z" />
    <path d="M1146 588 c-9 -27 -26 -107 -26 -118 l0 -11 22 3 21 3 13 38 13 38
-6 30 -5 29 -15 0 c-7 0 -15 -6 -17 -12z" />
    <path d="M1012 564 c2 -11 11 -20 22 -22 l18 -4 -4 18 c-2 11 -11 20 -22 22
l-18 4 4 -18z" />
    <path d="M1023 473 c-17 -36 -16 -43 6 -43 47 0 67 30 39 58 -19 19 -32 14
-45 -15z" />
    <path d="M246 454 l-6 -15 -11 7 -12 7 6 -10 c4 -6 -2 -18 -13 -28 -11 -10
-20 -22 -20 -27 0 -4 11 -8 25 -8 l26 0 6 18 c4 9 13 23 20 30 7 7 13 20 13
28 0 19 -26 18 -34 -2z" />
    <path d="M1365 398 c-16 -29 -34 -57 -42 -61 -7 -4 -13 -22 -13 -38 l0 -30 16
3 c8 2 27 25 42 52 15 28 35 59 45 70 9 11 17 28 17 38 l0 18 -18 0 -19 0 -28
-52z" />
    <path d="M1140 425 c0 -8 7 -15 15 -15 8 0 15 7 15 15 0 8 -7 15 -15 15 -8 0
-15 -7 -15 -15z" />
    <path d="M1180 420 c0 -27 -35 -81 -99 -154 -29 -32 -60 -70 -69 -85 -9 -14
-20 -29 -25 -32 -4 -3 -10 -29 -14 -57 l-6 -52 26 0 26 0 6 20 c3 11 4 29 0
39 l-6 20 48 6 c26 3 68 16 93 29 l45 24 -2 21 c-2 12 2 21 7 21 6 0 10 7 10
15 0 8 -5 15 -11 15 -5 0 -8 4 -5 9 3 5 -1 11 -9 15 -8 3 -15 9 -15 13 1 4 23
24 51 43 l49 35 -2 20 -3 20 -22 3 c-12 2 -27 10 -33 18 -7 8 -19 14 -26 14
l-14 0 0 -20z" />
    <path d="M1290 415 c0 -8 7 -15 15 -15 8 0 15 7 15 15 0 8 -7 15 -15 15 -8 0
-15 -7 -15 -15z" />
    <path d="M985 381 c-38 -15 -86 -36 -105 -46 -19 -10 -60 -26 -90 -36 l-55
-17 -3 -23 -3 -24 31 -19 31 -18 -18 -20 -18 -20 -21 27 -22 27 5 34 5 35 -44
-6 c-23 -4 -64 -11 -90 -17 l-48 -10 0 -12 c0 -15 208 -162 258 -183 20 -8 47
-24 61 -34 l24 -19 48 0 c27 0 49 4 49 9 0 5 -6 11 -12 13 l-13 5 0 59 0 59
23 32 c12 17 22 36 22 42 0 6 -21 -3 -47 -19 -55 -35 -108 -54 -129 -46 l-15
6 33 30 c18 17 34 26 36 20 l4 -10 19 11 c11 5 17 14 14 18 -3 5 7 12 21 15
29 8 85 46 122 83 12 12 25 36 28 53 l7 30 -19 -1 c-11 -1 -50 -13 -89 -28z" />
    <path d="M1107 393 c-4 -3 -7 -19 -7 -35 l0 -28 11 0 c16 0 38 31 39 53 l0 17
-18 0 c-10 0 -22 -3 -25 -7z" />
    <path d="M1287 253 c-4 -3 -7 -17 -7 -30 l0 -23 14 0 c14 0 26 21 26 46 0 14
-21 19 -33 7z" />
    <path d="M1237 186 c-24 -25 -110 -76 -126 -76 -9 0 -29 -17 -45 -37 l-30 -37
12 -4 c7 -2 12 -10 12 -18 l0 -14 65 0 65 0 23 38 c40 63 77 143 71 153 -8 13
-31 11 -47 -5z" />
  </g>
  <g transform="translate(0.000000,153.000000) scale(0.100000,-0.100000)" fill="#20276e" stroke="none">
    <path d="M1142 1497 c-18 -18 -29 -37 -25 -42 l8 -8 -11 6 c-14 8 -58 -38 -50
-52 l7 -11 -17 7 -17 6 6 -16 c3 -9 3 -16 -1 -16 -21 3 -35 -4 -64 -36 -17
-20 -37 -33 -44 -31 l-13 5 5 -12 c2 -7 -9 -27 -25 -44 -16 -18 -26 -35 -22
-40 3 -4 -2 -1 -12 7 l-18 13 3 -14 3 -14 -14 3 -13 3 5 -14 5 -15 -16 2 c-9
0 -21 -9 -27 -21 -7 -13 -15 -20 -20 -15 l-8 7 7 -12 7 -13 -23 -32 c-30 -44
-40 -49 -57 -35 l-14 12 13 -24 12 -24 -15 6 -15 6 -23 -27 c-13 -14 -17 -21
-9 -15 l15 11 20 -15 20 -16 -17 6 c-22 8 -50 -2 -43 -14 3 -4 -3 -6 -14 -4
l-19 3 6 -21 5 -22 -15 12 -15 13 2 -20 c1 -11 4 -23 8 -26 4 -4 7 -12 7 -17
0 -5 -8 1 -18 13 l-18 22 -14 -18 -15 -18 14 9 14 8 -6 -17 c-4 -10 -7 -20 -7
-22 0 -3 -4 -3 -9 0 -4 3 -16 -3 -25 -13 l-18 -19 18 -27 17 -26 -14 3 -14 3
3 -13 c1 -8 -2 -11 -6 -8 -5 3 -17 -3 -27 -14 -10 -11 -22 -20 -28 -20 l-9 0
12 15 13 15 -17 -6 c-9 -3 -16 -10 -16 -15 0 -5 -8 -9 -17 -9 l-18 -1 15 -12
c21 -17 19 -51 -5 -76 l-19 -22 -19 5 -18 4 12 -14 12 -15 -14 3 -14 3 3 -14
c4 -17 -37 -63 -49 -55 -5 3 -6 -2 -3 -10 l6 -16 -13 -1 c-8 -1 -18 -1 -23 0
-5 1 -6 -6 -2 -15 l6 -16 -15 6 c-8 3 -14 2 -14 -2 1 -4 1 -13 0 -20 l-1 -13
-12 6 c-7 4 -4 -1 6 -9 11 -9 15 -16 9 -16 -6 0 -13 -10 -16 -21 l-6 -22 -20
6 c-12 3 -21 1 -21 -4 0 -5 -12 -14 -26 -19 l-25 -10 -14 14 c-8 7 -12 16 -10
20 3 3 2 4 -1 1 -4 -2 -15 0 -25 6 l-19 9 9 -22 c4 -13 19 -28 32 -35 13 -7
24 -18 24 -25 2 -24 17 -48 31 -48 8 0 14 -4 14 -10 0 -5 7 -10 16 -10 l16 0
-12 15 c-19 23 -3 31 21 9 11 -10 20 -14 19 -9 -2 6 -2 16 -1 24 l1 13 17 -13
17 -14 -8 13 -7 12 10 0 c5 0 13 -5 16 -10 4 -6 11 -8 16 -5 5 4 9 1 9 -6 0
-7 3 -10 6 -7 3 4 -2 21 -11 40 l-17 33 13 -13 c7 -6 17 -12 22 -12 4 0 -4 10
-19 23 l-27 23 13 25 c21 38 47 69 54 62 3 -3 6 0 6 8 0 8 20 36 43 62 24 26
42 47 41 47 -2 0 9 12 24 27 16 16 31 36 35 46 3 9 12 17 18 17 l11 0 -12 15
-13 15 16 -6 16 -6 50 54 50 53 -12 7 -12 8 15 1 c8 1 18 1 23 0 4 0 7 5 7 12
0 7 16 28 35 47 19 18 31 38 28 43 l-6 10 10 -6 c5 -4 22 7 38 23 l27 28 14
-5 14 -5 1 13 c1 8 1 21 0 29 l-2 15 14 -17 c20 -25 28 -22 23 7 l-5 25 19
-10 c10 -6 21 -10 24 -10 3 0 3 13 1 29 l-3 30 13 11 c8 7 18 9 23 6 5 -3 22
9 38 27 l29 32 -32 -29 c-18 -17 -33 -24 -33 -18 0 17 72 92 88 92 7 0 10 -4
7 -10 -12 -20 2 -10 31 22 l29 33 -24 -20 -23 -20 3 19 c2 10 15 26 29 35 l24
16 -8 -15 c-5 -8 6 -1 25 17 l34 32 24 -6 24 -6 -7 12 c-4 6 -12 9 -17 6 -22
-14 -5 8 43 55 28 28 56 49 62 46 36 -14 46 -14 18 1 l-34 17 4 28 4 27 -20
-11 c-11 -6 -29 -20 -39 -32 l-19 -21 15 26 15 25 -10 18 -10 17 12 15 12 14
-19 0 c-10 0 -34 -15 -51 -33z m95 -74 c-4 -3 -7 0 -7 7 0 7 3 10 7 7 3 -4 3
-10 0 -14z m-84 -38 c-3 -9 -8 -14 -10 -11 -3 3 -2 9 2 15 9 16 15 13 8 -4z
m-92 -42 l14 -18 -17 14 c-10 7 -18 15 -18 17 0 8 8 3 21 -13z m46 -20 c-4 -3
-10 -3 -14 0 -3 4 0 7 7 7 7 0 10 -3 7 -7z m-295 -165 l-12 -12 0 10 c0 14 12
26 19 19 2 -3 -1 -11 -7 -17z m88 -42 c0 -3 -5 -8 -12 -12 l-11 -7 7 11 c7 12
16 16 16 8z m-33 -51 c-4 -8 -11 -15 -17 -15 l-11 0 11 21 c13 23 26 19 17 -6z
m8 -35 c3 -5 4 -10 1 -10 -3 0 -8 5 -11 10 -3 6 -4 10 -1 10 3 0 8 -4 11 -10z
m-185 -10 c0 -5 -5 -10 -11 -10 -5 0 -7 5 -4 10 3 6 8 10 11 10 2 0 4 -4 4
-10z m47 3 c-4 -3 -10 -3 -14 0 -3 4 0 7 7 7 7 0 10 -3 7 -7z m-143 -247 c-3
-8 -13 -17 -22 -21 l-16 -6 19 21 c21 24 26 25 19 6z m-367 -483 c-4 -3 -7 0
-7 7 0 7 3 10 7 7 3 -4 3 -10 0 -14z" />
    <path d="M640 1511 c0 -37 35 -56 47 -25 l6 16 -14 9 c-18 11 -39 11 -39 0z" />
    <path d="M1204 1500 c2 -16 20 -14 24 2 l4 13 -10 -14 -10 -13 -5 11 -5 12 2
-11z" />
    <path d="M1232 1369 l-24 -29 14 0 c7 0 19 12 25 27 7 15 12 27 10 28 -1 2
-12 -11 -25 -26z" />
    <path d="M1000 1380 l-15 -10 12 0 c6 0 15 5 18 10 8 12 4 12 -15 0z" />
    <path d="M1329 1381 l15 -9 -12 -15 -12 -14 25 5 c14 2 28 9 32 15 l6 10 -10
-6 c-6 -4 -16 0 -23 8 -7 8 -18 15 -24 15 l-11 0 14 -9z" />
    <path d="M1392 1349 l3 -14 -17 3 -18 3 6 -15 6 -16 18 10 c9 5 20 6 24 3 3
-3 6 0 6 8 l0 14 10 -15 10 -15 8 11 c4 6 14 14 22 17 8 3 2 5 -15 4 -16 0
-38 3 -48 8 l-18 7 3 -13z" />
    <path d="M1500 1333 c5 -2 8 -9 4 -14 -3 -5 0 -9 6 -9 15 0 7 23 -8 26 l-12 3
10 -6z" />
    <path d="M1670 1219 c0 -5 5 -7 10 -4 6 3 10 8 10 11 0 2 -4 4 -10 4 -5 0 -10
-5 -10 -11z" />
    <path d="M607 1214 c-4 -4 -17 -8 -29 -9 -12 -1 -24 -7 -26 -13 l-4 -12 49 4
48 4 0 13 c0 15 -27 24 -38 13z" />
    <path d="M1350 1187 c0 -7 5 -18 11 -24 l11 -11 -10 -32 c-7 -17 -41 -77 -78
-133 l-67 -102 -7 20 -8 20 -109 54 c-59 29 -125 62 -145 73 l-38 19 0 -13 c0
-16 36 -49 44 -41 3 4 6 2 6 -4 0 -6 6 -11 13 -10 6 0 20 -1 30 -1 l18 -2 -7
-12 -7 -11 16 6 15 6 6 -15 c3 -8 9 -13 13 -12 4 1 25 -4 46 -11 l37 -13 -7
-11 -6 -12 8 8 c5 4 19 0 33 -9 l24 -16 -7 13 -8 12 12 -8 13 -7 -6 -29 -5
-29 11 0 c6 0 9 3 6 6 -3 3 4 15 16 28 60 65 170 216 145 200 l-12 -7 5 14 c3
8 10 14 16 14 5 0 14 4 19 9 l8 9 -14 -8 -13 -8 6 21 c4 11 1 31 -5 46 -13 27
-29 35 -29 13z" />
    <path d="M525 1180 c3 -6 -2 -13 -12 -17 -25 -8 -83 -64 -83 -79 0 -7 20 8 45
32 25 24 51 44 58 44 7 0 -1 -12 -16 -25 -15 -14 -25 -25 -21 -25 3 0 1 -7 -6
-15 -7 -9 -10 -18 -6 -22 7 -8 35 27 36 45 0 6 7 12 15 12 8 0 15 5 15 11 l0
10 33 -3 32 -3 0 15 0 15 -32 -3 c-17 -2 -34 2 -38 7 -3 6 -11 11 -16 11 -6 0
-7 -5 -4 -10z" />
    <path d="M1880 1171 c0 -11 21 -19 38 -14 21 8 13 23 -13 23 -14 0 -25 -4 -25
-9z" />
    <path d="M1573 1138 c3 -13 8 -33 10 -45 3 -13 10 -31 16 -40 l10 -18 1 13 c0
7 4 11 9 8 14 -9 23 25 10 40 l-11 14 6 25 6 25 -9 0 c-5 0 -12 -10 -16 -22
l-8 -23 -4 23 c-2 12 -9 22 -15 22 l-10 0 5 -22z" />
    <path d="M1807 1153 c-4 -3 -7 -11 -7 -17 l0 -10 12 12 c6 6 9 14 7 17 -3 3
-9 2 -12 -2z" />
    <path d="M565 1128 c-11 -6 -23 -16 -27 -22 -16 -23 -7 -25 27 -5 19 12 32 25
29 30 -6 11 -4 11 -29 -3z" />
    <path d="M727 1092 c-19 -20 -23 -37 -7 -27 10 6 33 45 27 45 -2 0 -11 -8 -20
-18z" />
    <path d="M1563 1065 c0 -8 4 -12 9 -9 5 3 6 10 3 15 -9 13 -12 11 -12 -6z" />
    <path d="M1735 1010 c-9 -16 -13 -30 -11 -30 3 0 12 14 21 30 9 17 13 30 11
30 -3 0 -12 -13 -21 -30z" />
    <path d="M1585 1011 c-3 -12 -19 -33 -33 -46 -15 -14 -22 -25 -16 -25 5 0 24
15 42 33 l31 32 -8 14 -9 14 -7 -22z" />
    <path d="M940 995 c0 -7 61 -37 66 -33 2 3 -12 12 -31 21 -19 9 -35 15 -35 12z" />
    <path d="M1702 946 c-14 -30 -72 -97 -81 -92 -3 2 -11 -2 -18 -9 l-12 -13 14
-6 c17 -6 20 -26 4 -26 l-10 0 7 12 7 11 -12 -7 c-6 -4 -9 -11 -6 -16 6 -9
-23 -22 -34 -15 -4 2 -8 -2 -8 -9 l0 -13 18 4 c9 3 20 0 23 -6 l7 -11 -15 6
-14 5 -7 -20 c-3 -12 -11 -19 -16 -16 -14 10 -10 -15 5 -31 l15 -14 35 67 c20
38 34 73 31 80 -2 7 0 12 6 10 10 -2 83 122 76 129 -2 2 -9 -7 -15 -20z" />
    <path d="M1047 939 c7 -7 15 -10 18 -7 3 3 -2 9 -12 12 l-18 7 12 -12z" />
    <path d="M779 909 c-13 -17 -39 -45 -56 -62 -18 -16 -33 -35 -33 -41 0 -6 5
-4 10 4 l10 15 0 -13 c0 -7 -10 -16 -22 -21 -27 -10 -55 -39 -60 -61 -3 -17
-37 -50 -50 -50 -5 0 -7 -4 -4 -9 3 -5 0 -11 -8 -14 -8 -3 -13 -14 -12 -24 2
-10 -1 -26 -6 -37 l-10 -19 -9 14 -10 14 7 -27 6 -28 -15 -6 c-9 -3 -15 -14
-14 -24 1 -22 17 -16 17 7 0 9 3 13 8 9 4 -4 7 -13 7 -19 0 -5 5 -12 12 -14
l12 -4 -10 33 c-5 18 -9 33 -9 34 0 1 12 -1 28 -3 l27 -4 -16 13 -16 13 11 25
c18 42 48 80 57 74 5 -3 9 2 9 10 0 9 6 16 13 16 16 0 57 41 57 57 0 6 9 13
21 16 12 3 18 10 15 15 -3 5 8 22 24 37 17 16 30 37 30 47 l0 19 10 -6 c6 -3
10 -1 10 6 l0 11 15 -12 c8 -7 15 -9 16 -4 0 5 4 -1 10 -14 l9 -23 10 6 c5 3
10 1 10 -5 l0 -12 15 6 15 5 9 -18 c5 -9 35 -26 65 -36 31 -11 56 -25 56 -31
0 -7 14 -15 30 -19 17 -4 30 -11 30 -16 0 -5 8 -9 18 -9 10 0 25 -9 35 -20 9
-11 24 -20 32 -20 8 0 15 -6 15 -12 l0 -13 9 14 c5 7 13 11 18 8 5 -3 15 -2
23 3 l15 9 -12 12 c-7 7 -22 14 -34 16 -12 2 -33 12 -48 22 -14 10 -93 53
-176 96 -82 42 -154 81 -159 86 -19 17 -44 9 -67 -22z" />
    <path d="M1120 901 c14 -11 30 -21 35 -21 11 0 -7 14 -40 31 l-20 10 25 -20z" />
    <path d="M1610 902 c0 -4 4 -13 9 -20 l8 -14 6 15 6 15 -15 6 c-8 3 -14 2 -14
-2z" />
    <path d="M1475 834 c17 -15 24 -23 18 -20 l-13 7 0 -16 0 -16 12 7 11 7 -7
-12 -8 -12 -19 6 -19 6 0 -21 0 -20 25 16 c13 8 29 13 35 9 l10 -6 0 29 0 30
-25 16 c-39 25 -53 18 -20 -10z" />
    <path d="M490 785 l-13 -15 17 6 c9 3 16 10 16 15 0 13 -6 11 -20 -6z" />
    <path d="M1307 793 c-6 -11 16 -48 31 -50 21 -5 13 24 -9 30 l-21 6 7 10 c3 6
4 11 1 11 -3 0 -7 -3 -9 -7z" />
    <path d="M1495 721 c-11 -19 -14 -50 -5 -56 5 -3 11 9 15 26 7 32 2 48 -10 30z" />
    <path d="M1460 694 c0 -14 4 -23 9 -20 5 3 7 15 4 26 -7 28 -13 25 -13 -6z" />
    <path d="M405 660 l-19 -21 16 6 c9 4 19 13 22 21 7 19 2 18 -19 -6z" />
    <path d="M1037 667 l-5 -14 14 0 c8 0 14 6 14 14 0 7 -4 13 -9 13 -5 0 -11 -6
-14 -13z" />
    <path d="M1491 584 l-34 -75 -39 -34 c-21 -19 -43 -35 -49 -35 l-11 0 5 -19 5
-19 -19 -31 c-10 -17 -23 -31 -29 -31 -5 0 -10 -5 -10 -11 0 -6 -12 -38 -27
-71 l-26 -59 11 -11 11 -11 -10 -19 c-5 -10 -8 -18 -5 -18 4 0 29 41 85 143
12 21 18 43 15 49 l-7 11 9 -6 c6 -3 21 13 35 36 13 23 30 51 36 62 7 11 33
61 59 110 25 50 50 96 56 103 l10 12 -18 0 -19 -1 -34 -75z m-71 -154 c0 -6
-7 -13 -15 -16 -8 -4 -12 -11 -8 -17 l6 -10 -11 7 -12 7 13 19 c13 22 27 26
27 10z m-40 -60 l0 -20 -15 0 -15 0 12 20 c7 11 14 20 15 20 2 0 3 -9 3 -20z
m-30 -54 c0 -7 -7 -19 -15 -26 l-15 -12 0 19 c0 11 3 23 7 26 11 12 23 8 23
-7z m-44 -81 c-3 -20 -16 -31 -16 -13 0 13 8 28 16 28 1 0 1 -7 0 -15z" />
    <path d="M145 578 c-30 -16 -30 -16 -10 -38 10 -11 22 -17 28 -13 l10 6 -7
-11 -7 -12 10 0 c6 0 11 -7 11 -16 l0 -15 15 14 c8 9 19 17 25 19 l11 3 -6 18
c-4 9 -11 15 -15 12 -5 -3 -17 6 -27 20 l-18 24 -20 -11z" />
    <path d="M1130 534 l0 -15 10 6 c6 3 10 10 10 16 0 5 -4 9 -10 9 -5 0 -10 -7
-10 -16z" />
    <path d="M1382 528 c6 -18 28 -21 28 -4 0 9 -7 16 -16 16 -9 0 -14 -5 -12 -12z" />
    <path d="M1163 500 l-11 -25 10 -4 c15 -5 20 5 16 31 l-5 23 -10 -25z" />
    <path d="M42 477 l-3 -30 36 6 35 6 1 -12 c1 -7 1 -18 0 -24 -3 -22 16 -14 34
13 l17 26 -11 11 -11 11 0 -17 c0 -24 -11 -21 -36 10 -11 14 -30 27 -40 28
l-20 1 -2 -29z m43 13 c3 -5 4 -10 1 -10 -3 0 -8 5 -11 10 -3 6 -4 10 -1 10 3
0 8 -4 11 -10z" />
    <path d="M1330 500 c-14 -3 -26 -14 -28 -23 l-3 -17 15 0 c9 0 16 5 16 11 0 5
4 7 10 4 5 -3 17 -2 26 3 l15 9 -13 10 -13 10 -25 -7z" />
    <path d="M466 454 l-6 -17 15 13 c17 14 19 20 6 20 -5 0 -12 -7 -15 -16z" />
    <path d="M1204 421 c9 -10 28 -21 42 -24 l24 -4 0 12 c0 13 -42 35 -67 35
l-16 0 17 -19z" />
    <path d="M214 418 l-7 -11 11 7 c12 7 16 16 8 16 -3 0 -8 -5 -12 -12z" />
    <path d="M430 420 c-8 -6 -11 -10 -6 -10 5 0 3 -8 -5 -17 l-13 -18 24 22 c25
24 25 39 0 23z" />
    <path d="M352 395 l3 -20 -12 3 c-7 1 -13 -2 -13 -8 0 -14 16 -12 28 3 l11 13
-10 14 -10 15 3 -20z" />
    <path d="M377 351 l-4 -18 31 -17 31 -17 -20 16 c-11 9 -19 22 -17 30 4 21
-15 27 -21 6z" />
    <path d="M406 355 c4 -8 8 -15 10 -15 2 0 4 7 4 15 0 8 -4 15 -10 15 -5 0 -7
-7 -4 -15z" />
    <path d="M553 355 c0 -9 4 -14 9 -13 5 2 10 8 10 13 0 5 -5 11 -10 13 -5 1 -9
-4 -9 -13z" />
    <path d="M1045 341 c9 -15 -63 -68 -124 -90 l-57 -20 -32 -34 -33 -34 15 -12
15 -13 33 8 c18 5 39 9 45 9 7 0 23 9 35 20 13 11 27 18 31 17 5 -1 6 2 2 8
l-7 11 -16 -13 c-10 -7 -20 -17 -23 -21 -3 -5 -10 -8 -15 -8 -5 0 -26 -5 -47
-11 l-38 -11 -10 10 -10 10 30 13 c17 7 28 16 25 21 l-5 9 15 -6 16 -6 0 11
c0 6 7 11 16 11 8 0 38 18 67 39 51 39 71 44 60 16 -3 -8 -1 -15 5 -15 10 0
32 52 32 76 0 8 -7 14 -16 14 -8 0 -13 -4 -9 -9z" />
    <path d="M524 328 l-7 -11 11 7 c12 7 16 16 8 16 -3 0 -8 -5 -12 -12z" />
    <path d="M440 296 c0 -2 8 -10 18 -17 l17 -14 -14 18 c-13 16 -21 21 -21 13z" />
    <path d="M210 230 l0 -24 24 -21 c13 -11 34 -27 46 -35 12 -8 36 -27 54 -42
17 -15 36 -28 42 -28 7 0 14 -7 18 -15 3 -8 11 -15 18 -15 7 0 25 -11 40 -25
l27 -25 29 0 29 0 0 15 c0 8 -3 13 -5 10 -3 -3 -11 3 -18 13 -7 9 -16 17 -21
18 -25 2 -63 26 -63 39 0 8 -3 14 -7 13 -12 -4 -94 51 -137 91 -21 20 -35 29
-31 21 5 -8 -4 -4 -18 9 l-27 24 0 -23z" />
    <path d="M410 230 c0 -7 3 -10 7 -7 3 4 3 10 0 14 -4 3 -7 0 -7 -7z" />
    <path d="M530 236 c0 -2 7 -9 15 -16 l15 -13 -6 17 c-3 9 -10 16 -15 16 -5 0
-9 -2 -9 -4z" />
    <path d="M683 184 c9 -11 14 -24 10 -29 l-8 -8 12 6 c6 4 13 2 15 -5 2 -6 13
-12 24 -14 l19 -2 -22 15 -23 15 11 20 11 20 -20 -11 -19 -10 -14 12 c-7 7 -6
3 4 -9z" />
    <path d="M615 170 c3 -5 8 -10 11 -10 3 0 2 5 -1 10 -3 6 -8 10 -11 10 -3 0
-2 -4 1 -10z" />
    <path d="M760 164 l0 -15 10 6 c6 3 10 10 10 16 0 5 -4 9 -10 9 -5 0 -10 -7
-10 -16z" />
    <path d="M645 150 c3 -5 8 -10 11 -10 3 0 2 5 -1 10 -3 6 -8 10 -11 10 -3 0
-2 -4 1 -10z" />
    <path d="M675 130 c3 -5 8 -10 11 -10 3 0 2 5 -1 10 -3 6 -8 10 -11 10 -3 0
-2 -4 1 -10z" />
    <path d="M1242 108 c-6 -13 -23 -43 -38 -67 -15 -24 -22 -41 -16 -37 14 8 76
116 70 122 -3 2 -10 -6 -16 -18z" />
    <path d="M700 116 c0 -2 8 -10 18 -17 l17 -14 -14 18 c-13 16 -21 21 -21 13z" />
    <path d="M745 80 c3 -5 8 -10 11 -10 3 0 2 5 -1 10 -3 6 -8 10 -11 10 -3 0 -2
-4 1 -10z" />
    <path d="M653 43 c4 -3 10 -3 14 0 3 4 0 7 -7 7 -7 0 -10 -3 -7 -7z" />
  </g>
  <g transform="translate(0.000000,153.000000) scale(0.100000,-0.100000)" fill="#4e5254" stroke="none">
    <path d="M620 1521 c0 -6 5 -13 11 -17 6 -3 17 -20 24 -38 l14 -31 7 20 c4 11
11 23 16 26 14 9 -27 49 -51 49 -11 0 -21 -4 -21 -9z m51 -24 c-1 -12 -15 -9
-19 4 l-4 12 12 -4 c6 -3 11 -8 11 -12z" />
    <path d="M1194 1488 l-7 -11 11 7 c7 4 12 9 12 12 0 8 -9 4 -16 -8z" />
    <path d="M1202 1334 c-18 -18 -38 -34 -45 -35 -6 0 2 -7 18 -14 l30 -13 13 11
c7 5 11 16 8 24 l-6 14 9 -6 c6 -3 14 2 19 11 l9 17 22 -6 21 -5 -6 9 c-3 5
-13 9 -23 9 -9 0 -21 4 -26 9 l-10 10 -33 -35z" />
    <path d="M1349 1368 c-11 -51 1 -82 23 -60 l11 11 -11 14 c-7 8 -9 16 -6 19 3
3 1 9 -5 13 -6 3 -11 5 -12 3z m21 -42 c0 -3 -5 -8 -12 -12 l-11 -7 7 11 c7
12 16 16 16 8z" />
    <path d="M1316 1334 l-6 -15 -19 6 -19 6 -21 -27 c-12 -15 -21 -33 -21 -40 l0
-14 29 0 c17 0 33 5 36 10 3 6 16 10 28 9 l22 -1 -15 -5 c-15 -6 -30 -23 -30
-35 0 -3 8 -5 17 -4 l17 3 25 -46 c13 -25 29 -49 35 -53 6 -4 8 -8 4 -8 -4 0
1 -14 12 -32 l19 -32 -22 -26 -22 -25 21 18 22 18 5 -14 5 -14 -34 -13 c-37
-15 -42 -25 -18 -34 8 -3 12 -10 9 -16 -3 -5 0 -10 7 -10 7 0 24 -10 38 -21
14 -11 18 -18 10 -14 -8 4 -6 -1 4 -9 23 -19 36 -20 36 -5 0 5 -4 7 -10 4
l-10 -6 6 16 6 16 15 -18 14 -18 -5 33 c-6 33 -39 104 -115 245 -23 42 -41 86
-41 98 0 12 -8 28 -17 36 -10 8 -13 12 -7 9 l11 -5 -5 24 c-2 14 -6 25 -7 25
-2 0 -6 -7 -9 -16z m137 -351 c-6 -15 -39 -18 -47 -4 -7 10 7 17 34 17 l18 0
-5 -13z m4 -30 c-9 -9 -20 -14 -24 -10 -3 4 2 14 13 21 25 19 33 10 11 -11z" />
    <path d="M415 1330 c3 -5 8 -10 11 -10 3 0 2 5 -1 10 -3 6 -8 10 -11 10 -3 0
-2 -4 1 -10z" />
    <path d="M1410 1324 l0 -14 27 0 27 0 -12 12 c-17 17 -42 19 -42 2z" />
    <path d="M1500 1310 c0 -5 7 -10 16 -10 l15 0 -6 10 c-3 6 -10 10 -16 10 -5 0
-9 -4 -9 -10z" />
    <path d="M1430 1270 c0 -5 -7 -10 -16 -10 l-15 0 3 -17 c3 -18 28 -25 39 -11
3 5 14 -1 24 -12 l19 -21 -17 7 -17 6 0 -16 c0 -16 32 -39 44 -31 3 3 0 -3 -8
-12 l-15 -16 -17 18 -18 18 -4 -11 c-2 -6 1 -20 7 -30 l10 -19 26 0 c14 0 35
-9 45 -18 11 -10 20 -14 20 -10 0 5 5 4 11 -2 13 -13 42 -6 33 8 -3 5 2 12 10
15 19 7 22 25 4 21 l-12 -2 0 38 -1 38 21 -5 c12 -3 24 -2 28 2 4 4 15 7 23 7
9 0 18 6 21 14 l5 14 -17 -6 -17 -7 5 9 c3 5 -6 17 -20 26 l-26 17 4 -14 c6
-16 -9 -48 -22 -48 l-10 0 10 25 9 24 -11 7 -11 7 6 -9 c3 -5 -2 -18 -10 -29
l-15 -20 5 23 5 22 -14 0 c-8 0 -14 -7 -14 -15 0 -8 -5 -15 -10 -15 l-10 0 6
25 6 25 -20 0 c-12 0 -24 -5 -28 -12 l-7 -11 11 7 12 7 -7 -17 -6 -17 24 -18
24 -18 -8 -8 -9 -8 -14 20 c-8 11 -22 29 -32 40 -9 11 -16 23 -14 28 1 4 -5 7
-13 7 -8 0 -15 -4 -15 -10z m100 -135 c-7 -8 -14 -15 -15 -15 -2 0 -5 7 -9 15
l-5 15 21 0 20 0 -12 -15z" />
    <path d="M1606 1172 c-2 -4 -1 -13 3 -20 l7 -12 19 20 18 20 -21 0 c-11 0 -23
-4 -26 -8z" />
    <path d="M1720 1089 c0 -5 5 -7 10 -4 6 3 10 8 10 11 0 2 -4 4 -10 4 -5 0 -10
-5 -10 -11z" />
    <path d="M1627 1047 c-14 -23 -39 -55 -55 -71 l-30 -28 -11 6 -11 7 0 -16 c0
-9 6 -15 13 -14 25 3 38 -1 32 -11 -4 -6 11 1 32 16 21 14 38 31 38 37 0 7 5
19 10 27 5 8 15 29 21 47 l11 32 -13 5 -13 5 -24 -42z m-8 -65 l-34 -39 -19 1
-19 0 49 43 c26 23 50 40 52 38 3 -2 -10 -22 -29 -43z" />
    <path d="M1480 1047 c0 -7 6 -21 13 -32 l14 -18 11 7 c7 4 12 14 12 22 l0 15
-10 -6 c-6 -3 -13 1 -16 9 -7 19 -24 21 -24 3z" />
    <path d="M1543 1045 c-9 -25 4 -29 17 -6 l11 21 -11 0 c-6 0 -13 -7 -17 -15z" />
    <path d="M1646 945 l-5 -15 14 0 c16 0 20 16 6 24 -5 3 -11 -1 -15 -9z" />
    <path d="M1319 914 l-13 -16 19 -14 c17 -12 37 -18 56 -16 4 1 -2 -17 -12 -38
-11 -22 -26 -40 -34 -40 -8 0 -15 5 -15 10 0 6 -5 10 -11 10 l-11 0 11 -14 12
-15 -21 -11 c-11 -6 -18 -16 -14 -21 3 -6 8 -8 12 -5 3 3 11 -2 18 -12 l13
-17 1 23 0 23 16 -15 c8 -9 22 -16 30 -16 l14 0 -2 -24 c-1 -14 -6 -22 -10
-20 -4 3 -8 1 -8 -5 l0 -11 -25 10 -25 10 0 -11 0 -11 -15 12 -15 12 0 -11 c0
-11 47 -36 63 -33 4 1 7 -3 7 -8 0 -5 6 -9 13 -7 6 1 12 -5 12 -13 l0 -15 -17
3 c-19 3 -24 -13 -8 -23 16 -10 12 -22 -21 -57 -17 -18 -35 -41 -40 -50 l-10
-18 18 0 c10 0 28 3 41 6 l23 6 -6 17 -5 16 23 14 22 14 -14 -17 c-20 -24 -5
-33 19 -11 24 21 26 45 5 45 -17 0 -19 8 -16 63 l3 37 -13 0 c-7 0 -9 3 -6 6
4 4 13 1 21 -5 l14 -12 -4 -26 c-3 -14 -6 -30 -7 -36 -1 -6 10 -12 25 -13 l26
-3 12 29 12 29 -10 38 -10 38 -1 -21 c-2 -31 -12 -36 -28 -14 -8 11 -19 18
-24 15 l-9 -6 6 15 c3 9 13 16 22 16 8 0 13 3 9 6 -3 4 0 13 8 21 8 8 15 23
15 34 0 11 7 22 15 25 8 4 15 13 15 22 l0 16 -13 -19 -14 -18 -11 7 -12 7 0
-25 c0 -31 -15 -34 -23 -5 l-6 21 -12 -8 -12 -7 7 11 c4 7 3 12 -2 12 l-10 0
8 37 c5 20 7 40 4 44 -2 4 3 6 11 5 7 0 14 4 14 9 1 6 -2 10 -6 10 -5 0 -14 4
-20 8 -7 5 -17 5 -23 2 -5 -3 -10 -1 -10 4 0 17 -26 13 -41 -5z m28 -21 c-4
-3 -10 -3 -14 0 -3 4 0 7 7 7 7 0 10 -3 7 -7z m120 -260 c-4 -3 -7 0 -7 7 0 7
3 10 7 7 3 -4 3 -10 0 -14z m-121 -150 c-10 -11 -37 -12 -30 -2 3 5 12 9 21 9
9 0 13 -3 9 -7z" />
    <path d="M1595 901 c-6 -11 9 -23 19 -14 9 9 7 23 -3 23 -6 0 -12 -4 -16 -9z" />
    <path d="M1135 890 c3 -5 8 -10 11 -10 3 0 2 5 -1 10 -3 6 -8 10 -11 10 -3 0
-2 -4 1 -10z" />
    <path d="M1285 864 c-9 -14 -14 -28 -12 -30 3 -3 15 -6 28 -6 13 -1 30 -6 36
-11 l13 -9 6 18 c4 11 9 24 12 29 3 6 2 7 -3 3 -4 -4 -20 1 -35 12 l-28 20
-17 -26z m65 -36 l0 -10 -15 12 c-8 6 -19 9 -25 5 -11 -7 -14 8 -4 18 9 9 44
-11 44 -25z" />
    <path d="M1450 862 c0 -4 16 -17 35 -30 l35 -22 0 22 c0 12 -3 18 -7 15 -3 -4
-11 -3 -17 2 -17 13 -46 21 -46 13z" />
    <path d="M1193 853 c4 -3 10 -3 14 0 3 4 0 7 -7 7 -7 0 -10 -3 -7 -7z" />
    <path d="M898 783 c7 -3 16 -2 19 1 4 3 -2 6 -13 5 l-19 -1 13 -5z" />
    <path d="M1540 764 l0 -15 10 6 c6 4 8 11 5 16 -9 14 -15 11 -15 -7z" />
    <path d="M825 760 l-6 -10 16 0 16 0 -6 10 c-3 6 -8 10 -10 10 -2 0 -7 -4 -10
-10z" />
    <path d="M872 757 l-13 -15 13 -5 c7 -3 -3 -3 -22 0 -19 3 -41 11 -49 17 l-15
11 7 -18 7 -19 -17 -5 c-21 -6 -68 -61 -59 -70 3 -3 14 1 25 11 l18 17 88 -51
c47 -27 91 -47 97 -44 5 3 9 0 7 -7 -1 -8 -1 -20 0 -28 l1 -13 22 5 c27 8 58
-9 58 -31 1 -18 33 -62 45 -62 4 0 5 9 2 20 -3 11 -1 20 4 20 5 0 9 14 9 31
l0 30 -10 -6 c-6 -4 -7 -12 -4 -18 l7 -12 -9 8 c-5 5 -9 16 -9 25 0 9 -6 16
-12 15 -19 -4 -16 4 9 29 l22 22 -14 4 c-7 3 -19 -3 -25 -12 l-13 -17 -6 16
c-3 8 -2 15 2 15 4 0 13 9 19 19 l12 19 -15 18 -15 19 7 -25 c3 -14 3 -22 -1
-18 -5 4 -14 3 -22 -3 l-13 -11 -15 12 c-8 6 -19 9 -26 5 l-11 -7 29 -19 c15
-10 23 -19 16 -19 -6 0 -15 5 -18 10 -4 6 -10 8 -15 5 -4 -3 -13 1 -19 8 l-10
13 18 16 19 16 20 -14 21 -14 6 10 c11 17 -4 60 -20 60 -18 0 -20 -16 -2 -24
6 -3 0 -4 -15 -1 l-28 5 0 -11 0 -11 -15 12 c-9 7 -18 10 -22 7 -3 -4 0 -13 7
-22 l12 -15 -12 0 c-7 0 -23 11 -36 25 -13 14 -19 25 -14 25 5 0 12 -5 15 -10
4 -6 11 -8 16 -4 5 3 7 10 4 15 l-6 9 15 -6 c9 -3 16 -2 16 4 0 5 -7 13 -16
16 -8 3 -13 10 -9 15 3 5 0 13 -6 17 l-12 7 7 -11 c4 -7 3 -12 -3 -12 -5 0
-11 5 -13 11 l-4 11 -12 -15z m-18 -53 l6 -15 -10 6 c-5 3 -18 2 -27 -3 -10
-5 -24 -7 -31 -5 l-13 5 12 14 c15 19 55 18 63 -2z m31 -24 c3 -5 4 -10 1 -10
-3 0 -8 5 -11 10 -3 6 -4 10 -1 10 3 0 8 -4 11 -10z m150 -120 c3 -5 4 -10 1
-10 -3 0 -8 5 -11 10 -3 6 -4 10 -1 10 3 0 8 -4 11 -10z" />
    <path d="M1267 718 c-7 -26 0 -41 16 -31 12 8 17 9 40 12 l12 2 -24 19 c-13
11 -27 20 -31 20 -4 0 -10 -10 -13 -22z" />
    <path d="M1240 720 c0 -5 5 -10 11 -10 5 0 7 5 4 10 -3 6 -8 10 -11 10 -2 0
-4 -4 -4 -10z" />
    <path d="M1530 709 l0 -20 10 6 c6 3 10 13 10 21 0 8 -4 14 -10 14 -5 0 -10
-9 -10 -21z" />
    <path d="M0 684 c0 -13 5 -24 10 -24 6 0 10 7 10 15 l0 15 21 0 21 0 -5 -22
c-3 -13 -9 -34 -13 -47 l-7 -23 19 4 19 3 1 36 c1 20 -4 42 -10 50 -6 8 -23
15 -38 15 l-28 2 0 -24z" />
    <path d="M1250 661 c0 -6 5 -13 10 -16 l10 -6 0 15 c0 9 -4 16 -10 16 -5 0
-10 -4 -10 -9z" />
    <path d="M1495 610 c-30 -63 -101 -150 -123 -150 -6 0 -12 -4 -12 -9 0 -5 -13
-12 -28 -16 l-28 -6 -1 -21 -2 -21 12 12 c6 6 19 11 29 11 11 0 24 4 31 10 7
5 29 24 50 41 l38 32 30 59 c40 80 50 106 40 112 -4 3 -21 -22 -36 -54z" />
    <path d="M1241 624 l1 -19 5 13 c3 7 2 16 -1 19 -3 4 -6 -2 -5 -13z" />
    <path d="M683 614 l-6 -17 19 -14 c10 -8 39 -26 64 -40 54 -31 144 -88 183
-114 l27 -20 0 19 0 18 -40 23 c-22 12 -45 19 -50 16 l-10 -6 2 13 3 13 -16
-1 c-9 -1 -16 5 -16 12 0 8 6 14 13 14 17 0 37 38 30 56 l-6 15 -22 -3 -23 -3
-3 -30 c-2 -16 -8 -34 -14 -40 l-11 -10 7 12 7 12 -28 15 c-15 8 -22 15 -15
16 17 0 15 30 -2 30 -8 0 -16 -5 -18 -11 l-4 -12 -22 12 c-12 7 -28 9 -35 5
l-12 -7 13 14 c15 16 16 29 2 29 -6 0 -13 -7 -17 -16z" />
    <path d="M3 597 c1 -13 19 -41 39 -63 21 -21 43 -48 51 -58 l14 -19 7 12 8 12
13 -11 13 -11 6 16 6 16 -28 -3 -27 -3 3 21 3 21 -26 17 c-35 23 -65 54 -65
66 0 6 -4 10 -9 10 -6 0 -9 -10 -8 -23z" />
    <path d="M800 605 c0 -8 7 -15 15 -15 8 0 15 7 15 15 0 8 -7 15 -15 15 -8 0
-15 -7 -15 -15z" />
    <path d="M90 590 c0 -5 5 -10 10 -10 6 0 10 5 10 10 0 6 -4 10 -10 10 -5 0
-10 -4 -10 -10z" />
    <path d="M360 590 c0 -7 3 -10 7 -7 3 4 3 10 0 14 -4 3 -7 0 -7 -7z" />
    <path d="M1316 571 c-10 -15 22 -20 34 -5 l12 14 -20 0 c-12 0 -23 -4 -26 -9z" />
    <path d="M554 562 c7 -12 64 -14 71 -2 l6 10 -41 0 c-23 0 -39 -4 -36 -8z" />
    <path d="M1220 536 c0 -19 5 -38 10 -41 6 -3 10 -1 10 6 0 6 8 17 17 24 l17
13 -13 16 c-7 9 -20 16 -27 16 l-14 0 0 -34z" />
    <path d="M1130 543 c0 -10 -3 -29 -6 -43 l-7 -25 14 13 c15 14 22 72 8 72 -5
0 -9 -8 -9 -17z" />
    <path d="M210 544 c0 -13 18 -39 24 -34 2 3 -2 14 -10 24 -8 11 -14 16 -14 10z" />
    <path d="M540 540 c0 -4 7 -7 15 -6 23 3 26 12 5 13 -11 1 -20 -2 -20 -7z" />
    <path d="M638 543 c-22 -5 -23 -17 -4 -32 l14 -11 4 25 c3 14 5 24 4 24 0 -1
-9 -3 -18 -6z" />
    <path d="M6 523 c-4 -9 -4 -18 -1 -21 3 -3 5 0 5 7 0 7 4 10 9 6 5 -3 12 -1
15 4 3 5 0 11 -8 14 l-14 6 -6 -16z" />
    <path d="M679 524 l-13 -16 25 -22 c13 -11 36 -29 49 -39 l25 -18 -22 11 -21
10 -7 -31 -7 -30 18 -21 c11 -11 27 -24 36 -29 l17 -9 45 11 c25 6 47 17 50
25 l5 13 -14 -5 c-7 -3 -32 7 -54 22 -51 33 -54 44 -5 13 20 -12 51 -23 69
-25 l33 -2 -5 19 c-6 22 -36 42 -48 31 -5 -4 -6 -2 -2 3 l6 11 -78 47 c-42 26
-80 47 -83 47 -3 0 -12 -7 -19 -16z m106 -54 c3 -5 4 -10 1 -10 -3 0 -8 5 -11
10 -3 6 -4 10 -1 10 3 0 8 -4 11 -10z m9 -119 l6 -9 -19 5 c-11 3 -28 14 -38
25 l-18 21 32 -17 c17 -9 34 -20 37 -25z" />
    <path d="M160 509 c0 -5 5 -7 10 -4 6 3 10 8 10 11 0 2 -4 4 -10 4 -5 0 -10
-5 -10 -11z" />
    <path d="M556 511 l-7 -11 12 0 11 0 -13 -16 -14 -17 25 9 c14 4 35 8 47 7
l22 -1 -14 14 -14 14 -16 -6 -17 -7 -8 13 -7 12 -7 -11z" />
    <path d="M270 500 c0 -7 3 -10 7 -7 3 4 3 10 0 14 -4 3 -7 0 -7 -7z" />
    <path d="M487 484 c-10 -13 -13 -24 -8 -24 10 0 36 39 29 45 -2 2 -11 -8 -21
-21z" />
    <path d="M243 478 c-6 -7 -13 -20 -17 -28 l-7 -15 14 17 c8 10 16 16 19 13 2
-3 5 2 5 10 0 18 -2 18 -14 3z" />
    <path d="M1000 445 c0 -8 6 -15 13 -15 8 0 14 7 14 15 0 8 -6 15 -14 15 -7 0
-13 -7 -13 -15z" />
    <path d="M450 435 c-7 -8 -16 -12 -21 -9 -5 3 -9 0 -9 -5 0 -17 15 -13 35 9
10 11 16 20 13 20 -3 0 -11 -7 -18 -15z" />
    <path d="M681 434 l1 -19 5 13 c3 7 2 16 -1 19 -3 4 -6 -2 -5 -13z" />
    <path d="M1117 433 c-4 -3 -7 -16 -7 -28 l0 -22 23 2 22 2 1 26 1 27 -17 0
c-9 0 -20 -3 -23 -7z" />
    <path d="M1224 425 c22 -17 36 -19 36 -6 0 10 -24 21 -43 21 -7 0 -3 -7 7 -15z" />
    <path d="M0 425 c0 -11 34 -44 40 -37 3 4 16 -4 30 -17 14 -13 18 -20 10 -16
l-15 9 14 -17 14 -18 24 23 24 22 8 -13 9 -13 6 10 6 11 -21 6 -21 7 -8 -12
-7 -11 -17 16 c-9 9 -16 13 -16 9 0 -4 -8 0 -18 8 -21 19 -62 41 -62 33z" />
    <path d="M113 413 c4 -3 10 -3 14 0 3 4 0 7 -7 7 -7 0 -10 -3 -7 -7z" />
    <path d="M199 403 l-14 -18 18 14 c9 7 17 15 17 17 0 8 -8 3 -21 -13z" />
    <path d="M557 406 l-17 -13 6 -17 6 -16 -10 0 c-6 0 -9 -8 -7 -17 1 -10 7 -17
13 -16 l10 2 -3 -24 -2 -25 14 0 c8 0 12 4 9 8 -3 5 9 6 26 4 l31 -5 -5 14
c-3 8 -11 15 -19 15 -8 1 -20 2 -27 3 -7 0 -11 5 -7 10 3 6 -3 14 -12 20 l-18
10 22 -2 c12 0 20 -4 18 -7 -2 -3 0 -12 6 -20 5 -8 9 -10 10 -5 0 6 2 17 4 26
l3 16 -22 -1 -21 -1 0 20 0 20 20 -3 c20 -4 73 -52 57 -52 -5 0 -9 -7 -9 -15
l0 -16 10 10 10 10 26 -17 26 -17 -50 57 c-27 32 -57 58 -65 58 -8 -1 -23 -7
-33 -14z" />
    <path d="M1173 394 c-8 -21 1 -26 22 -11 l18 14 -17 6 -17 7 -6 -16z" />
    <path d="M395 390 c-7 -12 2 -30 16 -30 12 0 12 27 0 35 -5 3 -12 1 -16 -5z" />
    <path d="M1035 380 c3 -5 8 -10 11 -10 3 0 2 5 -1 10 -3 6 -8 10 -11 10 -3 0
-2 -4 1 -10z" />
    <path d="M985 370 c3 -5 10 -10 16 -10 5 0 9 5 9 10 0 6 -7 10 -16 10 l-15 0
6 -10z" />
    <path d="M1230 344 c-22 -20 -38 -39 -35 -42 3 -3 -3 -14 -12 -24 -10 -11 -13
-19 -8 -18 6 2 15 2 22 1 l12 -1 -4 -20 c-2 -11 0 -22 6 -25 l9 -6 0 25 c0 14
-6 29 -14 33 l-14 8 24 28 25 29 14 -6 15 -5 10 19 c13 24 13 40 0 40 -5 0
-28 -16 -50 -36z m-10 -28 c0 -3 -5 -8 -12 -12 l-11 -7 7 11 c7 12 16 16 16 8z" />
    <path d="M385 350 c3 -5 8 -10 11 -10 3 0 2 5 -1 10 -3 6 -8 10 -11 10 -3 0
-2 -4 1 -10z" />
    <path d="M1035 350 c3 -5 8 -10 11 -10 3 0 2 5 -1 10 -3 6 -8 10 -11 10 -3 0
-2 -4 1 -10z" />
    <path d="M1060 336 c-12 -33 -12 -36 -1 -36 10 0 25 50 17 58 -3 2 -10 -7 -16
-22z" />
    <path d="M1310 334 l0 -15 10 6 c6 4 8 11 5 16 -9 14 -15 11 -15 -7z" />
    <path d="M128 317 c12 -13 22 -28 22 -35 0 -6 9 -16 20 -22 11 -6 18 -15 15
-20 -3 -5 0 -12 6 -16 l12 -7 -8 13 -8 13 11 -7 c7 -4 12 -16 12 -27 l0 -19
14 0 c8 0 16 -5 18 -11 2 -5 11 -11 21 -13 10 -1 17 -6 16 -11 -1 -13 30 -27
42 -19 l12 7 -5 -14 c-3 -8 5 -22 18 -31 24 -19 39 -24 30 -9 -4 5 -1 11 6 13
l11 4 -29 27 -28 27 -10 -10 c-17 -17 -29 -11 -15 7 l14 17 -12 -7 -12 -7 -8
12 c-4 7 -8 18 -8 23 0 6 -13 10 -29 10 l-29 1 -4 24 -4 25 -46 43 c-50 44
-82 58 -45 19z m136 -133 l6 -17 -15 13 c-17 14 -19 20 -6 20 5 0 12 -7 15
-16z m89 -64 c3 -11 2 -18 -3 -15 -4 3 -10 14 -13 25 -3 11 -2 18 3 15 4 -3
10 -14 13 -25z" />
    <path d="M646 315 l-5 -15 21 0 20 0 -12 15 c-7 8 -14 15 -15 15 -2 0 -5 -7
-9 -15z" />
    <path d="M675 270 c-3 -5 5 -21 20 -35 l25 -26 13 7 12 8 -14 -18 -14 -17 13
3 c7 2 18 -6 24 -18 l11 -21 17 21 16 22 -13 18 -13 17 -6 -10 c-3 -5 0 -12 6
-14 l13 -5 -18 -1 -18 -1 6 20 6 20 -11 0 -12 0 5 20 5 20 -33 0 c-19 0 -37
-4 -40 -10z m35 -10 c0 -5 -5 -10 -11 -10 -5 0 -7 5 -4 10 3 6 8 10 11 10 2 0
4 -4 4 -10z m80 -64 c0 -3 -5 -8 -12 -12 l-11 -7 7 11 c7 12 16 16 16 8z" />
    <path d="M485 260 c3 -5 8 -10 11 -10 3 0 2 5 -1 10 -3 6 -8 10 -11 10 -3 0
-2 -4 1 -10z" />
    <path d="M1013 244 c-13 -14 -23 -28 -23 -30 0 -2 7 -4 15 -4 8 0 15 6 15 14
0 8 5 16 12 18 6 2 9 9 7 16 l-4 11 -22 -25z" />
    <path d="M510 250 c0 -5 5 -10 10 -10 6 0 10 5 10 10 0 6 -4 10 -10 10 -5 0
-10 -4 -10 -10z" />
    <path d="M835 240 c3 -5 8 -10 11 -10 3 0 2 5 -1 10 -3 6 -8 10 -11 10 -3 0
-2 -4 1 -10z" />
    <path d="M1237 189 c-10 -11 -16 -23 -14 -26 6 -6 47 28 47 39 0 14 -15 8 -33
-13z" />
    <path d="M930 175 c-13 -14 -18 -25 -12 -25 6 0 14 5 17 10 4 6 10 8 15 5 12
-8 20 9 11 23 l-7 12 -24 -25z" />
    <path d="M1074 172 c-11 -15 -24 -33 -28 -39 l-7 -13 21 0 21 0 -3 13 c-1 6 4
23 11 35 18 34 8 37 -15 4z" />
    <path d="M705 169 c3 -13 10 -27 16 -33 l11 -11 -10 21 c-6 12 -9 24 -6 27 3
3 1 8 -5 11 l-10 7 4 -22z" />
    <path d="M735 170 c3 -5 8 -10 11 -10 3 0 2 5 -1 10 -3 6 -8 10 -11 10 -3 0
-2 -4 1 -10z" />
    <path d="M1195 140 c3 -5 8 -10 11 -10 2 0 4 5 4 10 0 6 -5 10 -11 10 -5 0 -7
-4 -4 -10z" />
    <path d="M405 101 c3 -5 0 -11 -7 -13 l-12 -4 7 -17 c3 -9 12 -17 18 -17 l11
0 -11 14 -12 14 17 10 16 9 -16 6 -17 7 6 -9z" />
    <path d="M1026 84 c-9 -8 -16 -20 -16 -25 0 -5 -7 -9 -15 -9 -8 0 -15 -7 -15
-16 l0 -16 40 4 40 4 0 -13 0 -13 31 0 30 0 -6 9 c-3 5 0 13 7 18 l13 8 -50 6
-50 6 -7 -11 c-10 -15 -18 -3 -9 13 5 7 21 14 35 14 l27 -1 10 19 10 19 -30 0
c-16 0 -37 -7 -45 -16z m61 -71 c-4 -3 -10 -3 -14 0 -3 4 0 7 7 7 7 0 10 -3 7
-7z" />
    <path d="M770 67 c0 -2 21 -18 46 -36 25 -18 48 -30 52 -26 8 8 -37 44 -55 45
-7 0 -13 5 -13 10 0 6 -7 10 -15 10 -8 0 -15 -1 -15 -3z" />
    <path d="M1140 50 c0 -7 3 -10 7 -7 3 4 3 10 0 14 -4 3 -7 0 -7 -7z" />
    <path d="M430 41 c0 -5 7 -11 14 -14 l15 -6 -6 15 c-6 15 -23 19 -23 5z" />
    <path d="M466 37 c3 -10 9 -15 12 -12 3 3 0 11 -7 18 l-12 12 7 -18z" />
    <path d="M490 41 c0 -5 7 -12 16 -15 l17 -6 -13 15 c-14 17 -20 19 -20 6z" />
  </g>
  <g transform="translate(0.000000,153.000000) scale(0.100000,-0.100000)" fill="#b97467" stroke="none">
    <path d="M620 1510 l0 -24 12 12 12 12 -12 12 -12 12 0 -24z" />
    <path d="M1220 1306 l-20 -31 17 -12 c9 -7 27 -13 39 -13 l23 0 14 20 14 20
17 -6 16 -6 0 -24 c0 -13 26 -72 58 -131 65 -123 102 -204 102 -228 l0 -16
-10 6 c-16 10 -50 -5 -50 -21 0 -18 8 -18 27 1 l15 16 14 -12 14 -11 0 -47 c0
-47 -14 -121 -29 -156 -4 -11 -15 -36 -24 -56 l-15 -36 -26 2 c-32 4 -46 -14
-16 -22 l21 -6 -21 -22 c-12 -13 -35 -29 -51 -35 l-29 -12 -25 6 -25 6 0 19
c0 10 -7 22 -16 25 l-15 6 6 22 6 23 -15 -19 c-18 -23 -20 -32 -7 -40 5 -3 7
-14 5 -24 l-5 -17 -49 0 -50 0 6 35 c4 19 11 45 15 58 l9 22 20 0 c22 0 26 20
8 38 -17 17 -42 15 -61 -6 -9 -10 -23 -42 -31 -72 l-14 -55 -7 40 c-10 59 -33
103 -56 110 l-22 7 13 8 13 8 -23 12 -23 12 -8 -13 -9 -14 30 -25 c16 -14 36
-42 44 -62 l15 -35 -47 16 c-26 9 -54 25 -64 36 l-16 20 -9 -9 -8 -9 12 -4 13
-5 -6 -22 -5 -23 23 -7 c35 -9 41 -7 35 9 l-6 14 34 -16 34 -16 -10 -18 c-5
-10 -14 -21 -19 -24 -6 -3 -10 -13 -10 -21 l0 -15 17 3 16 3 11 33 11 33 12
-31 11 -30 -20 -11 -20 -11 -34 7 -34 6 -10 -26 c-5 -14 -15 -25 -23 -25 -7 0
-30 -9 -51 -20 -49 -25 -149 -57 -201 -65 -22 -3 -61 -11 -87 -16 l-46 -11 -6
-21 c-3 -12 -6 -25 -6 -28 0 -4 24 0 53 7 28 7 90 20 136 28 l83 15 75 35 c41
20 79 33 84 30 5 -3 9 -1 9 3 0 5 26 17 58 28 31 10 66 24 77 30 25 15 88 25
113 18 11 -3 27 -19 35 -36 l15 -31 -26 -53 c-15 -29 -32 -51 -37 -49 l-11 4
4 -34 4 -33 -46 -29 c-25 -16 -64 -32 -86 -36 l-40 -6 0 -15 0 -15 40 0 c22 0
56 6 74 14 47 20 114 82 138 130 l20 40 2 55 c0 31 -3 63 -7 71 l-7 16 43 11
44 12 45 45 44 45 29 63 c17 35 32 65 35 68 3 3 6 27 8 54 1 27 7 55 12 61
l10 11 -12 12 -12 12 11 11 11 11 -9 39 -9 40 15 15 c21 22 19 30 -3 11 -21
-19 -32 -13 -32 17 0 12 -7 31 -15 42 -8 12 -11 24 -8 28 3 3 1 6 -6 6 -7 0
-9 5 -6 11 4 5 0 18 -7 27 -19 21 -56 100 -68 143 l-10 33 30 -35 c16 -18 29
-37 30 -41 0 -5 7 -8 15 -8 24 0 17 26 -15 64 l-31 35 41 -1 40 0 -9 -12 -10
-12 8 -13 9 -13 21 7 c12 3 19 10 16 15 -3 5 4 11 15 15 64 20 -42 73 -127 62
-21 -2 -53 -11 -71 -18 l-34 -14 -12 16 -12 17 -28 -29 c-16 -16 -32 -29 -36
-29 -3 0 -5 12 -4 28 2 37 3 39 13 24 l8 -13 12 14 11 15 -25 4 -25 5 -20 -31z" />
    <path d="M1621 1253 c-1 -6 4 -15 9 -18 6 -4 8 -11 4 -16 -3 -5 -10 -7 -15 -3
-5 3 -8 0 -7 -7 2 -7 -6 -15 -17 -18 -11 -3 -21 -14 -23 -25 l-3 -18 13 8 c13
8 18 10 51 12 9 1 17 8 17 16 0 7 7 19 15 26 18 15 11 30 -15 30 -10 0 -21 6
-23 13 l-5 12 -1 -12z" />
    <path d="M1320 1240 c0 -7 3 -10 7 -7 3 4 3 10 0 14 -4 3 -7 0 -7 -7z" />
    <path d="M1570 1230 c0 -7 3 -10 7 -7 3 4 3 10 0 14 -4 3 -7 0 -7 -7z" />
    <path d="M1530 1189 c-13 -24 -4 -41 10 -19 10 16 13 40 5 40 -2 0 -9 -9 -15
-21z" />
    <path d="M1630 1004 l0 -15 10 6 c6 4 8 11 5 16 -9 14 -15 11 -15 -7z" />
    <path d="M1425 900 l-6 -10 21 0 21 0 -6 10 c-3 6 -10 10 -15 10 -5 0 -12 -4
-15 -10z" />
    <path d="M1383 806 c1 -6 8 -17 15 -24 l13 -14 -7 -34 -6 -34 17 0 17 0 -11
14 -12 14 11 7 c5 3 15 3 20 0 18 -11 11 17 -7 31 l-18 13 16 1 c9 0 19 8 22
19 l4 18 -38 0 -38 0 2 -11z" />
    <path d="M796 741 c5 -5 25 -11 44 -15 l35 -6 15 10 c18 11 20 11 -49 16 l-55
4 10 -9z" />
    <path d="M910 720 c0 -5 7 -10 16 -10 l15 0 -6 10 c-3 6 -10 10 -16 10 -5 0
-9 -4 -9 -10z" />
    <path d="M1266 714 l-6 -17 15 13 c17 14 19 20 6 20 -5 0 -12 -7 -15 -16z" />
    <path d="M3 681 c1 -12 7 -21 15 -21 l13 0 -3 17 c-2 9 -8 18 -15 20 l-12 4 2
-20z" />
    <path d="M42 689 c2 -7 10 -15 17 -17 l14 -4 -5 13 c-2 7 -10 15 -17 17 l-13
5 4 -14z" />
    <path d="M755 691 c-3 -5 4 -13 16 -16 28 -9 36 1 10 14 l-20 11 -6 -9z" />
    <path d="M933 683 c9 -9 19 -14 23 -11 10 10 -6 28 -24 28 l-16 0 17 -17z" />
    <path d="M1290 680 c0 -5 5 -10 10 -10 6 0 10 5 10 10 0 6 -4 10 -10 10 -5 0
-10 -4 -10 -10z" />
    <path d="M721 656 c-8 -9 -11 -19 -7 -23 9 -9 29 13 24 27 l-4 12 -13 -16z" />
    <path d="M25 644 l-20 -15 -1 -28 -2 -29 52 -51 51 -50 22 5 c13 4 20 10 17
16 -3 5 0 16 7 24 l12 15 -44 45 c-24 24 -49 42 -56 40 l-12 -5 9 24 10 25
-13 0 c-6 0 -21 -7 -32 -16z m10 -74 l6 -10 -15 6 c-18 7 -21 14 -7 14 6 0 13
-4 16 -10z m70 -68 l6 -17 -30 29 c-17 17 -31 31 -31 33 0 10 49 -31 55 -45z" />
    <path d="M820 651 c0 -10 24 -21 43 -21 7 0 3 7 -7 15 -22 17 -36 19 -36 6z" />
    <path d="M1390 645 l-12 -15 10 0 c5 0 12 7 16 15 3 8 4 15 2 15 -2 0 -9 -7
-16 -15z" />
    <path d="M687 614 l-6 -10 54 -32 53 -32 16 6 16 6 0 -15 0 -15 65 -41 c35
-23 67 -41 70 -41 3 0 5 5 5 10 0 6 -5 10 -10 10 -6 0 -21 9 -33 20 -12 12
-32 23 -44 26 -13 4 -24 12 -24 20 -3 27 -4 32 -11 40 -4 4 -5 18 -2 30 l6 24
-23 0 c-13 0 -31 -5 -39 -10 l-15 -10 18 -14 c9 -7 17 -16 17 -20 0 -11 -42 4
-58 20 -7 8 -19 14 -27 14 -7 0 -15 5 -17 12 l-4 12 -7 -10z" />
    <path d="M1335 570 l-6 -10 15 6 c18 7 21 14 7 14 -6 0 -13 -4 -16 -10z" />
    <path d="M1052 307 c-12 -29 -40 -72 -61 -95 l-39 -42 -10 -39 c-5 -22 -7 -43
-4 -46 3 -3 13 -5 22 -5 l18 0 5 28 c3 15 19 43 36 62 41 46 81 127 81 162 l0
28 -12 0 c-7 0 -23 -24 -36 -53z" />
    <path d="M1212 309 c-7 -11 -11 -24 -8 -27 10 -9 28 15 24 32 l-3 17 -13 -22z" />
    <path d="M1000 20 c0 -5 9 -10 20 -10 11 0 20 5 20 10 0 6 -9 10 -20 10 -11 0
-20 -4 -20 -10z" />
  </g>
  <g transform="translate(0.000000,153.000000) scale(0.100000,-0.100000)" fill="#bcb89f" stroke="none">
    <path d="M590 1492 c-20 -21 -26 -29 -15 -19 12 9 29 17 38 17 l17 0 0 20 c0
11 -1 20 -2 19 -2 -1 -19 -17 -38 -37z" />
    <path d="M1270 1520 c8 -5 20 -10 25 -10 6 0 3 5 -5 10 -8 5 -19 10 -25 10 -5
0 -3 -5 5 -10z" />
    <path d="M1200 1500 c0 -7 3 -10 7 -7 3 4 3 10 0 14 -4 3 -7 0 -7 -7z" />
    <path d="M1353 1483 c4 -3 10 -3 14 0 3 4 0 7 -7 7 -7 0 -10 -3 -7 -7z" />
    <path d="M1430 1450 c8 -5 20 -10 25 -10 6 0 3 5 -5 10 -8 5 -19 10 -25 10 -5
0 -3 -5 5 -10z" />
    <path d="M504 1418 l-19 -23 23 19 c21 18 27 26 19 26 -2 0 -12 -10 -23 -22z" />
    <path d="M1520 1410 c8 -5 20 -10 25 -10 6 0 3 5 -5 10 -8 5 -19 10 -25 10 -5
0 -3 -5 5 -10z" />
    <path d="M424 1348 l-19 -23 23 19 c21 18 27 26 19 26 -2 0 -12 -10 -23 -22z" />
    <path d="M1630 1360 c8 -5 20 -10 25 -10 6 0 3 5 -5 10 -8 5 -19 10 -25 10 -5
0 -3 -5 5 -10z" />
    <path d="M1677 1339 c7 -7 15 -10 18 -7 3 3 -2 9 -12 12 l-18 7 12 -12z" />
    <path d="M1225 1299 c-9 -17 -15 -32 -13 -34 2 -1 14 -8 27 -15 l23 -12 29 34
c15 18 28 27 29 21 0 -7 6 -13 14 -13 l14 0 7 -32 8 -33 7 40 8 40 -16 13 -16
12 -9 -9 c-5 -5 -15 -7 -22 -5 -7 3 -22 -6 -33 -20 -11 -14 -28 -26 -38 -26
l-17 0 20 23 c11 12 23 28 27 35 l7 12 -20 0 -20 0 -16 -31z" />
    <path d="M349 1283 l-24 -28 28 24 c25 23 32 31 24 31 -2 0 -14 -12 -28 -27z" />
    <path d="M1403 1303 c4 -3 10 -3 14 0 3 4 0 7 -7 7 -7 0 -10 -3 -7 -7z" />
    <path d="M1780 1290 c8 -5 20 -10 25 -10 6 0 3 5 -5 10 -8 5 -19 10 -25 10 -5
0 -3 -5 5 -10z" />
    <path d="M1566 1281 c-3 -5 1 -11 9 -15 8 -3 15 -1 15 4 0 13 -18 22 -24 11z" />
    <path d="M1410 1271 c0 -4 10 -12 23 -20 l22 -14 -12 15 c-7 8 -11 17 -8 20 3
2 -2 5 -10 5 -8 0 -15 -3 -15 -6z" />
    <path d="M1523 1234 l-13 -13 20 -3 20 -3 -15 -29 c-21 -39 -18 -46 5 -16 22
28 26 66 7 73 -6 2 -18 -1 -24 -9z" />
    <path d="M1625 1240 c3 -5 8 -10 11 -10 3 0 2 5 -1 10 -3 6 -8 10 -11 10 -3 0
-2 -4 1 -10z" />
    <path d="M269 1213 l-24 -28 28 24 c25 23 32 31 24 31 -2 0 -14 -12 -28 -27z" />
    <path d="M1471 1208 c7 -16 16 -28 21 -28 13 0 10 9 -13 33 l-21 22 13 -27z" />
    <path d="M1633 1208 l-12 -14 9 -14 9 -14 6 16 c4 10 5 22 3 29 l-4 11 -11
-14z" />
    <path d="M1580 1181 c0 -5 7 -11 14 -14 l15 -6 -6 15 c-6 15 -23 19 -23 5z" />
    <path d="M189 1143 l-24 -28 28 24 c25 23 32 31 24 31 -2 0 -14 -12 -28 -27z" />
    <path d="M1194 1158 l-7 -11 11 7 c12 7 16 16 8 16 -3 0 -8 -5 -12 -12z" />
    <path d="M1680 1140 c0 -5 -13 -23 -30 -40 l-30 -31 0 -27 c0 -15 5 -34 10
-42 l10 -15 0 38 0 38 40 36 c22 20 40 40 40 45 0 4 -9 8 -20 8 -11 0 -20 -4
-20 -10z" />
    <path d="M1750 1111 c0 -5 7 -14 15 -21 l16 -13 11 11 c5 5 7 15 4 21 -8 13
-46 15 -46 2z" />
    <path d="M109 1073 l-24 -28 28 24 c25 23 32 31 24 31 -2 0 -14 -12 -28 -27z" />
    <path d="M1113 1063 c-16 -6 -17 -33 -2 -33 5 0 7 5 4 11 l-7 10 24 -3 c12 -2
24 2 26 7 2 10 -24 15 -45 8z m44 -10 c-4 -3 -10 -3 -14 0 -3 4 0 7 7 7 7 0
10 -3 7 -7z" />
    <path d="M1074 1018 l-7 -11 11 7 c12 7 16 16 8 16 -3 0 -8 -5 -12 -12z" />
    <path d="M24 998 l-19 -23 23 19 c12 11 22 21 22 23 0 8 -8 2 -26 -19z" />
    <path d="M1609 924 l-66 -34 5 -25 c2 -14 8 -25 13 -25 5 0 15 12 21 26 l12
26 48 24 49 25 -6 9 c-3 6 -7 10 -8 9 -1 0 -32 -16 -68 -35z" />
    <path d="M1544 928 l-7 -11 11 7 c12 7 16 16 8 16 -3 0 -8 -5 -12 -12z" />
    <path d="M1396 878 c-9 -12 -16 -32 -16 -44 l0 -21 23 -12 22 -11 -23 6 -24 6
20 -20 20 -20 -11 -34 c-7 -18 -15 -38 -19 -44 l-8 -12 14 -12 15 -11 16 30
16 31 -16 0 c-18 0 -20 16 -4 26 6 3 15 0 20 -7 l9 -14 -4 48 -3 47 16 0 16 0
-12 8 c-16 10 -12 50 5 57 8 3 20 2 26 -2 7 -5 3 0 -7 10 -11 9 -32 17 -48 17
l-28 0 -15 -22z" />
    <path d="M1563 813 c-7 -2 -13 -9 -13 -15 l0 -9 23 6 c12 4 26 11 32 16 l9 9
-19 -1 c-11 0 -26 -3 -32 -6z" />
    <path d="M1291 751 l-22 -31 16 0 17 0 -5 -20 c-3 -11 -1 -23 4 -26 l9 -5 0
26 c0 15 4 34 9 44 l10 17 -8 13 -8 13 -22 -31z" />
    <path d="M802 751 l-14 -8 37 -7 c39 -8 54 -16 141 -74 l52 -34 22 -44 c13
-24 25 -44 28 -44 2 0 2 13 -1 30 -7 34 -47 100 -61 100 -6 0 -19 9 -30 19
-28 26 -119 71 -142 71 -11 0 -25 -4 -32 -9z" />
    <path d="M1260 700 c0 -7 3 -10 7 -7 3 4 3 10 0 14 -4 3 -7 0 -7 -7z" />
    <path d="M13 686 c4 -9 2 -16 -3 -16 -6 0 -10 -14 -10 -32 l0 -32 12 12 12 12
15 -13 15 -12 -7 17 -6 17 17 10 17 10 -11 18 c-6 10 -21 20 -34 21 l-23 4 6
-16z" />
    <path d="M722 651 c-18 -22 -32 -42 -32 -44 0 -2 53 -36 118 -75 64 -39 131
-80 148 -92 l30 -20 30 32 c16 18 22 28 14 23 l-16 -10 16 15 c14 14 27 60 17
60 -3 0 -21 7 -42 16 -20 8 -34 11 -31 5 4 -5 2 -12 -4 -16 l-10 -6 0 15 c0 9
-4 16 -10 16 -5 0 -9 5 -7 11 2 11 -158 108 -179 109 -6 0 -25 -18 -42 -39z
m99 -68 l-5 -28 -4 22 -3 23 -22 -11 -22 -10 19 15 c11 9 25 16 32 16 l11 0
-6 -27z m54 -3 l6 -10 -15 6 -16 6 0 -10 c0 -6 6 -12 13 -15 l12 -5 -18 -7
c-24 -10 -31 -1 -17 24 12 23 25 27 35 11z m72 -27 c-4 -3 -10 -3 -14 0 -3 4
0 7 7 7 7 0 10 -3 7 -7z" />
    <path d="M1540 680 c0 -7 3 -10 7 -7 3 4 3 10 0 14 -4 3 -7 0 -7 -7z" />
    <path d="M20 605 c0 -10 2 -16 5 -13 3 3 32 -22 64 -55 l58 -60 11 7 c21 13
13 33 -34 83 l-46 48 24 -35 c13 -19 28 -42 33 -50 l9 -15 -16 12 c-8 7 -19 9
-23 5 -5 -4 -5 -2 -2 4 6 10 -20 39 -65 73 l-18 13 0 -17z" />
    <path d="M284 598 l-7 -11 11 7 c12 7 16 16 8 16 -3 0 -8 -5 -12 -12z" />
    <path d="M235 580 c3 -5 8 -10 11 -10 3 0 2 5 -1 10 -3 6 -8 10 -11 10 -3 0
-2 -4 1 -10z" />
    <path d="M260 586 c0 -2 8 -10 18 -17 l17 -14 -14 18 c-13 16 -21 21 -21 13z" />
    <path d="M570 545 c-6 -8 -10 -22 -8 -32 l3 -18 22 -3 22 -3 10 20 c6 11 8 27
5 35 -8 20 -38 21 -54 1z" />
    <path d="M1405 550 c4 -6 11 -8 16 -5 14 9 11 15 -7 15 l-15 0 6 -10z" />
    <path d="M254 539 c-3 -6 2 -18 12 -27 l18 -17 -14 18 -14 19 15 9 14 9 -12 0
c-6 0 -15 -5 -19 -11z" />
    <path d="M295 540 c3 -5 8 -10 11 -10 3 0 2 5 -1 10 -3 6 -8 10 -11 10 -3 0
-2 -4 1 -10z" />
    <path d="M1120 528 c0 -9 5 -20 10 -23 13 -8 13 5 0 25 l-10 15 0 -17z" />
    <path d="M216 491 c-3 -5 1 -14 8 -20 l14 -12 7 11 6 10 -13 -2 c-7 -2 -12 3
-10 10 2 14 -4 16 -12 3z" />
    <path d="M409 484 c-7 -9 -13 -28 -14 -42 0 -15 -4 -26 -10 -24 -5 2 -9 10 -8
19 l1 15 -11 -11 -10 -10 11 -14 12 -13 -12 -12 -12 -12 12 0 c7 0 12 -8 12
-17 l1 -18 10 18 c5 9 7 22 3 29 l-7 11 13 -8 13 -8 -6 16 c-3 9 -2 19 3 22 4
3 11 -1 13 -7 l5 -13 1 17 c1 9 9 24 18 34 l17 17 -21 -7 -21 -7 -7 11 -6 10
23 9 23 10 -16 0 c-9 1 -23 -6 -30 -15z" />
    <path d="M168 443 l-12 -15 14 -8 13 -8 23 16 c12 10 20 19 18 21 -10 11 -45
7 -56 -6z m27 -3 c3 -5 4 -10 1 -10 -3 0 -8 5 -11 10 -3 6 -4 10 -1 10 3 0 8
-4 11 -10z" />
    <path d="M0 420 c0 -7 3 -10 7 -7 3 4 3 10 0 14 -4 3 -7 0 -7 -7z" />
    <path d="M25 390 c3 -5 8 -10 11 -10 3 0 2 5 -1 10 -3 6 -8 10 -11 10 -3 0 -2
-4 1 -10z" />
    <path d="M70 356 c0 -2 8 -10 18 -17 l17 -14 -14 18 c-13 16 -21 21 -21 13z" />
    <path d="M1242 275 c-12 -25 -22 -48 -22 -52 0 -3 9 2 19 11 19 17 38 72 29
81 -2 3 -14 -16 -26 -40z" />
    <path d="M1195 290 c-3 -5 -1 -10 4 -10 6 0 11 5 11 10 0 6 -2 10 -4 10 -3 0
-8 -4 -11 -10z" />
    <path d="M155 270 c3 -5 8 -10 11 -10 3 0 2 5 -1 10 -3 6 -8 10 -11 10 -3 0
-2 -4 1 -10z" />
    <path d="M185 230 c3 -5 8 -10 11 -10 3 0 2 5 -1 10 -3 6 -8 10 -11 10 -3 0
-2 -4 1 -10z" />
    <path d="M355 90 c3 -5 8 -10 11 -10 3 0 2 5 -1 10 -3 6 -8 10 -11 10 -3 0 -2
-4 1 -10z" />
    <path d="M395 60 c3 -5 8 -10 11 -10 3 0 2 5 -1 10 -3 6 -8 10 -11 10 -3 0 -2
-4 1 -10z" />
  </g>
  <g transform="translate(0.000000,153.000000) scale(0.100000,-0.100000)" fill="#772c30" stroke="none">
    <path d="M1473 1313 c9 -2 23 -2 30 0 6 3 -1 5 -18 5 l-30 0 18 -5z" />
    <path d="M1430 1276 c0 -2 13 -6 29 -8 17 -2 28 -1 25 4 -5 8 -54 12 -54 4z" />
    <path d="M1498 1243 c7 -3 16 -2 19 1 4 3 -2 6 -13 5 l-19 -1 13 -5z" />
    <path d="M1411 1224 l1 -19 5 13 c3 7 2 16 -1 19 -3 4 -6 -2 -5 -13z" />
    <path d="M1430 1226 c0 -2 8 -10 18 -17 l17 -14 -14 18 c-13 16 -21 21 -21 13z" />
    <path d="M1456 1117 c3 -10 9 -15 12 -12 3 3 0 11 -7 18 l-12 12 7 -18z" />
    <path d="M1480 1070 l12 -23 8 14 9 13 6 -26 c4 -15 4 -32 0 -37 l-6 -11 16 6
c8 4 20 15 26 26 l11 21 -13 8 c-8 5 -20 9 -26 10 -23 3 -28 4 -41 13 l-14 8
12 -22z" />
    <path d="M1520 980 c0 -7 3 -10 7 -7 3 4 3 10 0 14 -4 3 -7 0 -7 -7z" />
    <path d="M1512 800 c0 -14 2 -19 5 -12 2 6 2 18 0 25 -3 6 -5 1 -5 -13z" />
    <path d="M1501 734 l1 -19 5 13 c3 7 2 16 -1 19 -3 4 -6 -2 -5 -13z" />
    <path d="M1490 690 c0 -7 3 -10 7 -7 3 4 3 10 0 14 -4 3 -7 0 -7 -7z" />
    <path d="M1114 608 l-7 -11 11 7 c7 4 12 9 12 12 0 8 -9 4 -16 -8z" />
    <path d="M1190 613 c0 -7 -6 -13 -14 -13 -8 0 -18 -5 -22 -12 l-7 -11 11 7 12
7 1 -23 c2 -48 -3 -83 -15 -90 l-11 -8 33 0 32 0 0 63 c0 34 -5 69 -10 77
l-10 15 0 -12z" />
    <path d="M1475 563 c-27 -43 -96 -102 -133 -114 -18 -6 -42 -9 -52 -6 l-19 5
16 -27 c22 -34 27 -40 20 -19 l-6 16 35 6 c19 4 34 11 34 16 0 6 4 9 10 8 12
-4 87 78 106 114 19 36 11 36 -11 1z" />
    <path d="M1100 570 c0 -7 3 -10 7 -7 3 4 3 10 0 14 -4 3 -7 0 -7 -7z" />
    <path d="M1140 560 c0 -7 3 -10 7 -7 3 4 3 10 0 14 -4 3 -7 0 -7 -7z" />
    <path d="M1240 560 c0 -7 3 -10 7 -7 3 4 3 10 0 14 -4 3 -7 0 -7 -7z" />
    <path d="M1267 546 c-20 -14 -38 -22 -40 -18 -2 4 -2 1 0 -6 1 -8 3 -25 3 -38
0 -13 5 -24 11 -24 5 0 7 4 4 10 -3 5 -1 18 4 27 l10 18 1 -20 1 -20 9 21 c4
11 22 27 39 34 34 14 42 40 12 40 -10 0 -34 -11 -54 -24z" />
    <path d="M1092 530 c0 -14 2 -19 5 -12 2 6 2 18 0 25 -3 6 -5 1 -5 -13z" />
    <path d="M1020 465 l-12 -15 10 0 c12 0 26 19 19 26 -2 2 -10 -2 -17 -11z" />
    <path d="M1105 470 l-20 -9 23 0 c12 -1 22 4 22 9 0 6 -1 10 -2 9 -2 0 -12 -4
-23 -9z" />
    <path d="M987 436 l-6 -16 12 1 c18 1 54 17 40 18 -6 1 -18 4 -26 7 l-14 5 -6
-15z" />
    <path d="M1161 443 l-24 -5 10 -6 11 -7 -21 -44 c-23 -49 -34 -42 -19 13 l10
34 -27 -9 -26 -9 -2 -31 c-3 -44 -45 -128 -86 -171 l-35 -38 -9 -37 -9 -38 8
-40 c5 -21 14 -43 21 -47 6 -4 33 -8 58 -8 l47 0 5 20 5 20 -18 0 c-11 0 -22
-4 -25 -10 -3 -5 -10 -10 -15 -10 -17 0 -40 32 -40 56 l0 24 13 0 c7 0 18 -5
23 -10 l11 -11 54 12 c30 6 67 18 82 26 50 25 110 87 133 138 l24 50 -1 35 -1
35 -15 -62 -15 -63 -44 -49 c-51 -56 -115 -91 -165 -90 l-34 1 30 14 30 14
-40 -6 c-22 -3 -48 -8 -57 -11 -10 -2 -18 0 -18 6 0 6 4 11 8 11 5 0 14 10 19
23 6 12 39 54 73 92 62 71 100 131 100 160 l0 15 18 0 c24 0 47 -19 66 -55 20
-39 21 -13 0 30 l-15 33 -22 6 c-24 6 -38 6 -76 -1z m-95 -176 c-14 -29 -40
-68 -57 -87 -17 -19 -33 -47 -36 -62 -3 -15 -11 -28 -18 -28 l-13 0 10 40 10
39 39 42 c21 22 48 63 61 89 l23 49 3 -15 c2 -9 -8 -39 -22 -67z" />
    <path d="M954 408 l-7 -11 11 7 c7 4 12 9 12 12 0 8 -9 4 -16 -8z" />
    <path d="M726 392 c-3 -5 1 -9 9 -9 8 0 12 4 9 9 -3 4 -7 8 -9 8 -2 0 -6 -4
-9 -8z" />
    <path d="M773 385 l-12 -13 14 -6 c17 -6 31 12 19 24 l-9 8 -12 -13z" />
    <path d="M893 385 c-18 -8 -33 -16 -33 -19 0 -5 71 22 79 30 9 8 -15 3 -46
-11z" />
    <path d="M1030 390 c-8 -5 -10 -10 -5 -10 6 0 17 5 25 10 8 5 11 10 5 10 -5 0
-17 -5 -25 -10z" />
    <path d="M805 361 l-6 -20 -30 -6 c-17 -4 -28 -9 -25 -12 2 -3 21 0 40 7 l36
12 -6 10 -7 10 22 -7 c26 -8 27 1 2 15 l-20 10 -6 -19z" />
    <path d="M993 373 c4 -3 10 -3 14 0 3 4 0 7 -7 7 -7 0 -10 -3 -7 -7z" />
    <path d="M970 360 c0 -7 3 -10 7 -7 3 4 3 10 0 14 -4 3 -7 0 -7 -7z" />
    <path d="M708 313 c7 -3 16 -2 19 1 4 3 -2 6 -13 5 l-19 -1 13 -5z" />
    <path d="M623 303 c4 -3 10 -3 14 0 3 4 0 7 -7 7 -7 0 -10 -3 -7 -7z" />
    <path d="M530 272 l-22 -18 17 -14 17 -14 11 19 c14 25 17 45 7 45 -4 0 -18
-8 -30 -18z" />
    <path d="M773 283 c4 -3 10 -3 14 0 3 4 0 7 -7 7 -7 0 -10 -3 -7 -7z" />
    <path d="M668 263 c7 -3 16 -2 19 1 4 3 -2 6 -13 5 l-19 -1 13 -5z" />
    <path d="M598 253 c7 -3 16 -2 19 1 4 3 -2 6 -13 5 l-19 -1 13 -5z" />
    <path d="M563 243 c4 -3 10 -3 14 0 3 4 0 7 -7 7 -7 0 -10 -3 -7 -7z" />
    <path d="M1194 188 l-7 -11 11 7 c7 4 12 9 12 12 0 8 -9 4 -16 -8z" />
    <path d="M1164 168 l-7 -11 11 7 c7 4 12 9 12 12 0 8 -9 4 -16 -8z" />
    <path d="M780 66 c0 -12 92 -67 107 -64 l16 3 -39 26 c-38 27 -84 45 -84 35z" />
  </g>
</svg>